<?xml version="1.0" encoding="UTF-8" standalone="no"?><!-- Generator: Gravit.io --><svg xmlns="http://www.w3.org/2000/svg" xmlns:xlink="http://www.w3.org/1999/xlink" style="isolation:isolate" viewBox="0 0 1062.8 930.6" width="1062.8pt" height="930.6pt"><defs><clipPath id="_clipPath_PgyppAyMjvr2ZOQ0wwSytw6FKqKYuDcW"><rect width="1062.8" height="930.6"/></clipPath></defs><g clip-path="url(#_clipPath_PgyppAyMjvr2ZOQ0wwSytw6FKqKYuDcW)"><g><g><path d=" M 780.066 930.604 L 531.424 930.604 L 282.782 930.604 C 271.743 930.604 258.301 922.843 252.782 913.284 L 128.46 697.953 L 4.139 482.623 C -1.38 473.063 -1.38 457.541 4.139 447.981 L 128.46 232.651 L 252.782 17.321 C 258.301 7.761 271.743 0 282.782 0 L 531.424 0 L 780.066 0 C 791.104 0 804.547 7.761 810.066 17.321 L 934.387 232.651 L 1058.708 447.981 C 1064.227 457.541 1064.227 473.063 1058.708 482.623 L 934.387 697.953 L 810.066 913.284 C 804.547 922.843 791.104 930.604 780.066 930.604 Z " fill="rgb(240,221,197)"/></g><g><path d=" M 484.902 896.361 C 482.824 893.643 481.545 889.807 481.545 885.81 C 481.545 879.257 486.66 857.045 489.697 850.331 C 491.136 847.134 490.497 843.618 485.541 830.038 C 477.389 807.347 464.449 769.63 459.973 755.084 C 449.263 721.043 436.323 685.244 433.445 682.846 C 431.687 681.408 430.728 679.17 431.367 677.731 C 431.847 676.292 432.486 669.579 432.806 662.705 C 432.966 655.991 435.843 637.137 439.04 620.832 C 442.237 604.527 446.233 580.557 447.992 567.297 C 451.189 543.008 459.981 499.057 465.408 480.202 C 468.285 469.972 468.445 469.972 470.203 474.288 C 471.163 476.845 472.441 484.998 472.921 492.663 C 473.72 504.332 475.958 512.636 486.348 543.328 C 501.374 587.279 509.519 609.97 512.236 614.925 C 513.195 616.844 514.634 626.914 515.274 637.137 C 515.913 647.367 517.352 657.43 518.471 659.508 C 521.668 665.742 532.698 679.641 535.255 680.601 C 538.133 681.719 555.708 665.734 559.225 658.869 C 560.664 655.991 561.463 649.118 561.463 638.575 C 561.463 624.828 562.102 621.16 565.619 613.327 C 567.857 608.212 571.853 596.542 574.571 587.279 C 577.128 578.008 582.244 560.432 585.76 548.123 C 592.634 523.674 598.548 496.347 597.11 494.109 C 596.63 493.31 596.79 489.474 597.43 485.317 L 598.708 477.804 L 600.786 485.797 C 602.065 490.273 603.824 498.905 604.783 504.971 C 605.742 511.205 607.5 519.678 608.779 523.986 C 610.058 528.302 611.017 534.856 611.017 538.372 C 611.177 542.049 612.136 549.242 613.415 554.517 C 614.693 559.792 616.452 573.052 617.411 584.082 C 618.37 595.112 619.809 606.134 620.768 608.691 C 622.846 615.405 631.798 669.419 631.798 675.973 C 631.798 678.85 630.998 681.887 630.039 682.367 C 629.24 683.006 628.76 685.404 629.4 687.802 C 629.879 690.2 628.92 695.794 627.162 700.75 C 620.928 718.965 615.813 732.393 609.426 747.898 C 605.75 756.69 600.155 772.188 596.798 782.258 C 593.281 792.329 588.166 804.63 585.289 809.425 C 582.252 814.381 578.096 822.213 576.017 826.681 C 571.701 835.953 571.701 836.432 579.214 856.885 C 582.731 865.837 582.731 867.276 580.813 875.26 C 579.694 879.896 578.415 887.569 577.935 892.205 C 577.296 898.759 576.657 900.517 574.259 900.517 C 569.144 900.517 567.385 896.521 570.263 891.885 C 572.82 888.048 572.82 887.729 570.423 886.77 C 566.906 885.491 567.225 883.413 571.861 877.818 C 574.259 874.941 575.858 871.104 575.858 867.907 C 575.858 861.833 568.664 840.101 565.467 836.584 C 562.27 833.067 563.389 829.391 577.616 795.031 C 579.214 791.034 582.411 782.882 584.809 776.656 C 587.207 770.581 594.241 754.284 600.635 740.697 C 611.504 717.526 617.579 702.98 620.768 692.11 C 621.727 688.753 621.567 686.995 619.969 685.716 C 618.85 684.757 615.493 677.563 612.775 669.571 C 609.898 661.738 604.783 649.437 601.426 642.404 C 598.069 635.37 593.753 625.779 591.675 621.152 C 589.757 616.516 587.998 612.999 587.679 613.319 C 587.359 613.639 585.6 624.509 583.842 637.768 C 582.084 650.876 578.887 671.009 576.809 682.359 C 574.571 693.868 571.374 712.083 569.455 723.113 C 565.939 742.927 560.504 761.47 554.749 772.979 C 551.552 779.533 544.838 783.849 537.965 783.849 C 531.89 783.849 521.979 773.778 520.549 766.273 C 519.909 763.236 517.671 756.682 515.593 751.887 C 506.801 732.233 501.686 714.809 496.579 686.363 C 493.542 669.267 490.984 654.72 488.906 642.412 C 482.512 604.535 482.991 606.293 480.594 608.212 C 479.315 609.331 472.122 622.758 464.449 638.256 C 456.936 653.761 449.103 668.62 447.193 671.177 L 443.516 676.133 L 447.193 687.163 C 449.271 693.397 453.107 702.988 455.665 708.735 C 460.46 719.285 472.289 753.485 481.553 783.849 C 486.988 801.904 490.345 811.176 496.579 826.362 L 500.575 836.113 L 496.739 848.901 C 492.263 863.127 491.783 866.956 493.542 874.469 C 494.501 878.625 494.021 879.744 491.304 881.183 C 487.148 883.581 486.988 886.458 491.144 890.134 C 494.98 893.651 494.82 899.406 490.984 900.205 C 489.545 900.525 486.828 898.767 484.91 896.369 L 484.902 896.361 Z " fill="rgb(60,121,71)"/><path d=" M 295.205 534.224 C 294.566 533.265 295.845 530.867 298.243 528.789 C 300.64 526.711 303.358 523.194 304.157 520.797 C 305.596 517.12 305.276 515.841 302.399 512.804 C 299.521 509.767 299.202 508.648 300.96 506.57 C 302.079 505.291 305.436 504.172 308.313 504.172 C 312.949 504.172 313.748 504.811 313.748 507.848 C 313.588 516.001 308.953 530.699 305.596 533.417 C 301.759 536.614 296.804 536.934 295.205 534.216 L 295.205 534.224 Z " fill="rgb(60,121,71)"/><path d=" M 758.185 522.235 C 754.668 508.808 754.508 507.209 756.426 502.422 C 757.865 498.905 759.304 497.786 761.861 498.106 C 764.259 498.425 765.058 499.544 764.738 501.782 C 762.501 515.37 762.501 515.849 765.058 517.288 C 768.415 519.206 768.255 522.243 764.738 525.44 C 760.582 529.277 759.943 528.957 758.185 522.243 L 758.185 522.235 Z " fill="rgb(60,121,71)"/><path d=" M 316.458 506.25 C 314.22 504.172 315.339 499.856 319.015 496.659 C 323.012 492.822 349.06 481.953 381.661 470.291 C 410.267 460.061 411.705 459.741 410.906 463.578 C 410.267 467.734 401.955 471.73 360.081 487.707 C 354.327 489.785 348.572 492.503 347.293 493.622 C 346.014 494.741 341.698 496.979 337.862 498.417 C 333.866 500.016 328.75 502.573 326.352 504.332 C 321.877 507.369 318.2 508.168 316.442 506.25 L 316.458 506.25 Z " fill="rgb(60,121,71)"/><path d=" M 740.929 501.942 C 738.531 499.864 730.698 495.388 723.673 491.871 C 697.145 478.764 672.528 465.504 670.458 463.585 C 668.699 461.827 668.699 460.708 669.978 457.991 C 671.097 456.232 672.536 454.634 673.335 454.634 C 674.294 454.634 679.569 457.671 685.164 461.507 C 696.194 468.701 713.13 478.292 732.632 488.355 C 745.9 495.228 754.044 501.622 752.446 504.18 C 750.688 506.897 745.732 505.938 740.937 501.942 L 740.929 501.942 Z " fill="rgb(60,121,71)"/><path d=" M 590.54 469.02 C 585.904 450.646 581.588 433.701 579.031 422.352 L 576.153 410.043 L 580.949 405.567 C 583.506 403.169 588.142 397.415 591.179 392.779 C 594.217 388.143 597.254 384.147 598.053 383.668 C 598.692 383.188 598.692 387.024 598.053 391.98 C 597.414 396.935 596.454 415.47 595.815 433.214 C 595.176 450.949 594.217 467.734 593.577 470.771 L 592.458 476.206 L 590.54 469.012 L 590.54 469.02 Z " fill="rgb(60,121,71)"/><path d=" M 473.081 465.344 C 471.163 458.95 470.363 448.559 469.884 418.675 C 469.564 397.583 469.724 378.241 470.203 375.523 L 471.322 370.728 L 473.72 374.724 C 475.159 376.962 478.356 382.397 480.754 386.713 C 483.311 391.189 487.627 397.743 490.664 401.259 L 496.099 407.973 L 488.906 430.025 C 484.91 442.333 480.594 456.872 479.155 462.626 C 477.716 468.381 476.278 473.177 476.118 473.337 C 475.958 473.496 474.679 469.98 473.081 465.344 L 473.081 465.344 Z " fill="rgb(60,121,71)"/><path d=" M 413.943 464.704 C 410.906 458.47 415.382 446.329 426.732 431.144 C 436.163 418.196 451.98 395.345 455.337 389.43 C 456.936 386.553 459.014 384.475 459.973 384.794 C 460.772 385.114 461.731 390.23 462.051 396.144 C 462.53 406.055 462.211 407.334 458.534 410.691 C 456.296 412.769 450.382 420.761 445.266 428.586 C 435.196 444.092 421.456 462.786 418.579 464.545 C 416.341 466.143 414.743 466.143 413.943 464.704 L 413.943 464.704 Z " fill="rgb(60,121,71)"/><path d=" M 658.941 456.712 C 653.186 454.474 634.491 439.296 628.577 431.943 C 625.06 427.467 617.866 419.155 612.591 413.568 C 603.959 404.296 603.16 402.858 603.8 397.423 C 605.238 385.114 606.357 381.118 608.435 381.118 C 610.354 381.118 620.584 394.066 642.476 424.11 C 646.632 429.865 653.985 438.657 658.621 443.764 C 665.814 451.437 666.933 453.515 665.335 455.433 C 663.256 457.991 662.777 458.151 658.941 456.712 L 658.941 456.712 Z " fill="rgb(60,121,71)"/><path d=" M 508.4 403.489 C 503.445 403.01 499.129 402.37 498.809 401.891 C 494.013 395.816 486.021 383.676 483.303 378.4 C 481.545 374.724 477.868 368.649 475.151 364.653 C 463.002 346.598 461.404 312.078 471.474 282.026 C 472.753 278.029 474.032 274.673 474.352 274.353 C 474.511 274.193 480.266 276.111 486.98 278.829 C 512.868 289.059 568.488 289.858 588.142 280.107 C 594.376 277.07 601.57 277.87 605.086 282.186 C 607.964 285.702 608.124 288.26 607.484 318.784 L 607.005 351.545 L 601.729 362.575 C 595.975 374.884 584.785 392.14 577.6 399.813 L 572.804 405.088 L 545.158 404.768 C 529.972 404.608 513.355 403.969 508.4 403.489 L 508.4 403.489 Z " fill="rgb(60,121,71)"/><path d=" M 613.399 308.881 C 610.042 297.371 610.362 295.134 615.956 291.785 C 627.306 284.911 644.722 262.38 656.231 239.689 C 658.149 236.172 660.227 232.815 661.187 232.176 C 663.584 230.577 666.941 232.496 666.941 235.533 C 666.941 239.689 654.632 264.298 648.406 272.451 C 640.574 283.001 629.552 299.138 623.797 308.889 C 621.08 313.365 618.202 317.201 617.403 317.201 C 616.604 317.201 614.845 313.525 613.407 308.889 L 613.399 308.881 Z " fill="rgb(60,121,71)"/><path d=" M 449.902 302.487 C 446.225 296.892 439.032 286.342 433.757 278.837 C 416.501 254.387 406.59 235.205 408.668 229.77 C 409.947 226.733 414.423 227.212 415.542 230.569 C 420.657 244.636 449.263 281.554 460.772 288.739 L 464.608 291.137 L 462.371 301.208 C 461.092 306.803 459.174 311.598 458.214 311.918 C 457.255 312.238 453.419 307.922 449.902 302.487 L 449.902 302.487 Z " fill="rgb(60,121,71)"/><path d=" M 663.576 223.544 C 662.617 220.986 660.859 211.715 659.58 203.091 C 658.301 194.459 656.063 184.396 654.465 180.72 C 649.829 170.329 644.074 148.118 645.193 145.4 C 645.673 143.962 647.431 143.002 648.87 143.322 C 650.788 143.642 652.546 147.638 655.104 157.389 C 657.022 164.902 660.059 174.965 661.818 179.76 C 664.855 188.392 669.011 211.243 669.011 220.195 C 669.011 227.228 665.814 229.147 663.576 223.552 L 663.576 223.544 Z " fill="rgb(60,121,71)"/><path d=" M 405.639 218.429 C 405.16 215.871 405.319 212.194 406.119 209.956 C 406.918 207.878 408.197 200.685 408.836 194.131 C 409.476 187.577 411.554 178.146 413.472 173.358 C 415.55 168.403 418.427 159.291 419.866 153.065 C 422.903 140.757 425.94 136.281 429.137 139.478 C 430.576 140.916 430.576 143.474 428.978 149.708 C 426.26 160.898 422.743 171.44 419.866 177.674 C 418.587 180.392 416.509 190.143 415.23 199.246 C 413.951 208.358 412.353 217.302 411.873 219.38 C 410.435 224.335 406.918 223.856 405.639 218.421 L 405.639 218.429 Z " fill="rgb(60,121,71)"/><path d=" M 650.157 139.797 C 649.038 138.039 654.153 128.768 657.989 125.411 C 659.908 123.972 660.707 124.292 661.986 126.69 C 665.023 132.444 653.514 145.224 650.157 139.797 Z " fill="rgb(60,121,71)"/><path d=" M 415.222 132.125 C 411.226 125.89 411.066 120.615 415.222 120.615 C 416.341 120.615 419.059 123.493 421.456 127.169 C 424.973 132.284 425.453 134.043 423.854 135.961 C 420.977 139.318 419.698 138.678 415.222 132.125 L 415.222 132.125 Z " fill="rgb(60,121,71)"/><path d=" M 541.481 597.989 C 540.682 559.952 540.202 520.637 540.202 510.574 C 540.362 500.503 540.682 474.136 541.002 451.924 L 541.481 411.65 L 556.028 411.969 L 570.574 412.289 L 572.493 422.679 C 573.612 428.434 575.85 438.185 577.448 444.251 C 580.645 456.56 585.76 476.853 588.478 488.522 C 589.597 493.638 589.757 499.712 588.638 507.697 C 587.039 520.645 565.627 596.71 559.233 612.695 C 555.876 621.168 555.077 625.643 555.077 637.784 C 555.077 654.089 553.798 658.237 547.244 663.512 L 542.768 667.029 L 541.489 597.989 L 541.481 597.989 Z  M 562.894 524.633 C 564.972 518.559 566.41 470.939 564.492 469.66 C 563.533 469.18 562.094 469.34 561.295 470.139 C 559.856 471.578 556.819 522.715 557.938 526.231 C 559.057 529.269 561.455 528.469 562.894 524.633 Z  M 582.867 486.756 C 584.945 483.559 561.295 423.631 557.618 422.991 C 553.782 422.192 554.421 424.909 561.615 443.444 C 565.131 452.716 570.247 465.975 572.804 472.849 C 575.522 479.882 577.919 486.117 578.399 486.916 C 579.518 488.674 581.756 488.514 582.875 486.756 L 582.867 486.756 Z " fill="rgb(60,121,71)"/><path d=" M 528.853 664.152 C 522.619 655.839 522.619 655.52 521.5 637.145 C 520.381 619.569 519.742 617.171 512.069 597.669 C 503.277 575.778 488.898 534.544 482.344 512.964 C 479.147 502.094 478.827 498.577 479.946 488.994 C 481.545 474.927 486.181 456.552 494.812 430.025 L 501.526 409.572 L 511.917 410.531 C 517.671 411.01 524.545 411.49 527.422 411.49 L 532.378 411.49 L 532.218 442.333 C 532.218 459.118 532.857 500.024 533.976 532.945 C 535.095 566.027 535.735 610.937 535.575 632.829 L 535.095 672.784 L 528.861 664.152 L 528.853 664.152 Z  M 513.827 512.005 C 513.347 475.726 512.388 467.414 509.191 467.414 C 506.953 467.414 506.793 471.091 507.753 502.893 C 508.392 522.387 509.191 538.852 509.671 539.651 C 510.15 540.45 511.429 540.77 512.388 540.45 C 513.827 539.971 514.147 531.978 513.827 512.005 L 513.827 512.005 Z  M 500.08 472.05 C 516.384 427.939 518.455 421.065 515.106 421.065 C 513.028 421.065 511.269 424.582 503.756 444.555 C 491.288 477.637 489.849 480.993 488.73 483.871 C 488.091 485.309 488.091 487.867 488.57 489.306 C 490.329 493.941 494.005 488.506 500.08 472.05 L 500.08 472.05 Z " fill="rgb(60,121,71)"/><path d=" M 517.504 279.316 C 511.589 278.677 500.559 275.959 490.816 272.922 C 479.787 269.565 478.348 266.368 476.43 240.8 C 474.671 216.191 476.43 200.046 481.865 187.425 C 484.742 181.191 486.5 179.433 491.935 177.195 C 495.612 175.916 500.088 174.957 501.686 175.277 C 506.322 176.076 505.043 168.403 496.731 143.794 C 488.099 117.906 486.82 110.552 484.742 76.672 C 483.783 61.806 482.344 45.189 481.545 39.914 C 479.467 27.445 479.467 18.342 481.545 18.342 C 485.701 18.342 488.418 36.397 491.136 81.308 C 492.415 102.08 494.013 113.75 496.891 124.46 C 498.969 132.452 502.645 146.671 505.203 156.102 C 508.56 169.69 509.998 173.198 511.917 172.407 C 516.712 170.649 533.649 168.251 539.723 168.411 C 545.318 168.731 557.459 171.288 567.209 174.166 C 570.407 175.125 570.726 174.485 571.685 165.054 C 572.325 159.459 574.563 149.868 576.801 143.802 C 586.392 117.594 598.053 58.305 598.213 35.606 C 598.213 27.453 600.131 24.896 603.967 28.093 C 606.525 30.171 606.365 33.368 602.849 53.501 C 596.294 90.259 588.142 126.857 583.834 137.727 C 578.719 151.155 573.444 173.047 575.042 174.645 C 575.522 175.125 577.44 175.764 579.198 176.084 C 586.232 177.203 591.667 181.519 594.704 188.233 C 597.901 195.586 602.537 226.269 600.778 229.147 C 600.139 229.946 599.34 238.578 598.86 248.001 C 598.221 264.466 597.901 265.417 593.585 269.413 C 586.392 276.127 564.82 280.443 541.33 280.283 C 530.779 280.123 520.237 279.644 517.52 279.324 L 517.504 279.316 Z  M 494.653 228.172 C 503.125 218.421 509.199 196.369 505.682 187.417 C 504.244 183.581 503.125 182.941 497.69 182.941 C 490.337 182.941 487.939 185.819 483.943 199.566 C 481.225 208.997 480.905 225.454 483.623 228.971 C 485.861 231.848 491.775 231.369 494.653 228.172 L 494.653 228.172 Z  M 594.376 221.778 C 595.655 211.067 592.298 195.09 586.863 187.577 C 582.707 181.663 573.755 181.023 570.878 186.458 C 568.001 191.893 569.919 208.19 574.714 217.621 C 580.149 228.172 583.027 230.889 588.622 230.889 C 592.938 230.889 593.257 230.41 594.376 221.778 L 594.376 221.778 Z " fill="rgb(60,121,71)"/></g></g></g></svg>