<?xml version="1.0" encoding="UTF-8" standalone="no"?><!-- Generator: Gravit.io --><svg xmlns="http://www.w3.org/2000/svg" xmlns:xlink="http://www.w3.org/1999/xlink" style="isolation:isolate" viewBox="0 0 1062.8 930.6" width="1062.8pt" height="930.6pt"><defs><clipPath id="_clipPath_jRuoHHZLOBy9wlROUNUuLgqMK2rtWbp0"><rect width="1062.8" height="930.6"/></clipPath></defs><g clip-path="url(#_clipPath_jRuoHHZLOBy9wlROUNUuLgqMK2rtWbp0)"><g><g><path d=" M 780.066 930.604 L 531.424 930.604 L 282.782 930.604 C 271.743 930.604 258.301 922.843 252.782 913.284 L 128.46 697.953 L 4.139 482.623 C -1.38 473.063 -1.38 457.541 4.139 447.981 L 128.46 232.651 L 252.782 17.321 C 258.301 7.761 271.743 0 282.782 0 L 531.424 0 L 780.066 0 C 791.104 0 804.547 7.761 810.066 17.321 L 934.387 232.651 L 1058.708 447.981 C 1064.227 457.541 1064.227 473.063 1058.708 482.623 L 934.387 697.953 L 810.066 913.284 C 804.547 922.843 791.104 930.604 780.066 930.604 Z " fill="rgb(240,221,197)"/></g><g><path d=" M 285.42 822.318 C 283.562 817.673 286.163 814.143 295.824 808.012 L 305.114 802.252 L 305.114 790.547 C 305.114 781.629 305.857 778.657 307.715 778.657 C 310.688 778.657 312.546 786.646 312.546 799.084 C 312.546 807.445 312.174 808.002 303.442 813.576 C 298.425 816.92 293.966 820.822 293.223 822.308 C 291.923 825.838 286.72 825.838 285.42 822.308 L 285.42 822.318 Z " fill="rgb(193,145,0)"/><path d=" M 777.101 820.098 C 776.172 818.24 771.528 814.338 766.883 811.18 L 758.336 805.606 L 758.336 794.087 C 758.336 781.081 759.451 776.808 763.167 776.808 C 765.025 776.808 765.768 779.781 765.768 788.513 L 765.954 800.032 L 775.615 806.535 C 782.861 811.551 785.276 814.338 785.276 817.682 C 785.276 823.256 779.888 824.928 777.101 820.098 Z " fill="rgb(193,145,0)"/><path d=" M 308.087 773.287 C 306.229 770.5 315.89 726.662 322.578 706.792 C 329.453 686.364 337.442 670.943 341.343 670.943 C 342.644 670.943 344.688 673.544 345.802 676.703 L 347.846 682.648 L 358.994 681.533 C 370.884 680.233 378.864 682.091 380.536 686.736 C 383.695 694.91 352.491 738.562 324.994 764.378 C 313.846 774.783 310.13 776.641 308.087 773.296 L 308.087 773.287 Z " fill="rgb(193,145,0)"/><path d=" M 751.648 767.342 C 725.46 746.728 688.497 696.573 689.983 684.125 L 690.541 679.295 L 706.519 679.852 C 721.94 680.595 722.497 680.409 723.612 676.136 C 724.355 673.907 724.912 670.005 724.912 667.776 C 724.912 660.715 728.071 662.945 734.945 674.65 C 743.492 689.142 753.71 719.602 759.275 747.462 C 765.034 775.693 764.291 777.551 751.657 767.332 L 751.648 767.342 Z " fill="rgb(193,145,0)"/><path d=" M 697.043 674.836 C 688.497 673.163 671.227 663.688 668.069 658.857 C 666.768 656.814 663.796 648.081 661.752 639.349 C 659.523 630.617 656.178 617.063 654.135 609.26 C 652.091 601.271 650.976 592.725 651.719 590.123 C 652.834 585.479 666.954 574.331 671.776 574.331 C 676.978 574.331 706.324 625.043 714.499 647.886 C 720.816 666.094 721.745 670.915 719.143 673.888 C 716.914 676.675 708.182 677.047 697.043 674.817 L 697.043 674.836 Z " fill="rgb(193,145,0)"/><path d=" M 408.387 576.765 C 396.31 566.546 396.496 568.219 405.786 540.173 C 412.103 521.036 415.818 515.1 421.392 514.915 C 426.409 514.915 428.267 522.161 425.851 532.751 C 424.922 536.652 423.622 549.658 422.879 561.353 C 422.321 573.058 421.206 583.454 420.463 584.197 C 419.534 584.94 414.332 581.596 408.387 576.765 L 408.387 576.765 Z " fill="rgb(193,145,0)"/><path d=" M 648.747 581.41 C 648.561 581.038 648.375 571.749 648.003 560.424 C 647.818 549.277 646.889 533.494 645.96 525.691 C 644.659 513.242 644.845 511.199 647.26 511.199 C 653.391 511.199 665.839 535.714 671.404 558.567 C 672.89 565.255 672.705 566.184 668.803 568.785 C 666.573 570.271 661.929 573.802 658.77 576.774 C 653.94 581.048 648.923 583.277 648.737 581.419 L 648.747 581.41 Z " fill="rgb(193,145,0)"/><path d=" M 319.039 407.731 C 321.64 393.239 332.788 386.188 342.44 392.867 C 346.155 395.654 346.155 395.654 340.024 400.113 C 336.68 402.529 330.735 406.802 327.019 409.589 C 323.303 412.376 319.773 414.605 319.03 414.605 C 318.472 414.605 318.472 411.447 319.03 407.731 L 319.039 407.731 Z " fill="rgb(193,145,0)"/><path d=" M 293.595 402.9 C 291.179 401.042 286.349 397.698 282.819 395.469 C 279.289 393.239 274.83 388.223 272.786 384.321 C 269.442 377.447 269.442 376.889 272.972 366.671 C 276.13 357.009 277.059 356.081 282.447 355.523 C 292.852 354.408 309.378 362.026 318.853 372.059 C 328.514 382.463 329.258 385.621 322.755 390.638 C 320.34 392.682 317.739 397.141 316.995 400.485 C 315.881 406.616 315.695 406.802 306.963 406.43 C 301.389 406.43 296.187 404.944 293.585 402.9 L 293.595 402.9 Z " fill="rgb(193,145,0)"/><path d=" M 756.85 402.9 C 754.62 401.785 752.763 399.556 752.763 397.698 C 752.763 395.84 750.161 391.753 747.189 388.594 C 740.686 381.906 741.058 380.419 753.134 368.724 C 765.025 357.019 786.196 349.03 791.955 353.675 C 795.671 356.647 799.201 366.68 799.201 374.102 C 799.201 382.463 794.185 389.337 782.852 396.202 C 771.147 403.263 762.795 405.492 756.85 402.891 L 756.85 402.9 Z " fill="rgb(193,145,0)"/><path d=" M 264.249 361.292 C 264.249 353.117 260.905 343.084 257.003 339.564 C 254.959 337.706 246.413 335.29 235.274 333.432 C 211.316 329.717 212.245 330.088 212.245 324.329 C 212.245 319.684 212.617 319.498 221.163 320.427 C 235.284 321.913 262.029 328.416 265.373 331.203 C 267.231 332.689 270.018 337.148 271.876 341.421 C 275.22 348.853 275.034 352.569 270.761 363.15 C 268.717 368.166 264.258 367.052 264.258 361.292 L 264.249 361.292 Z " fill="rgb(193,145,0)"/><path d=" M 798.458 356.461 C 794.742 346.614 794.742 347.543 799.387 337.696 C 801.803 332.494 805.147 328.778 808.491 327.292 C 816.48 323.948 853.258 316.33 856.231 317.445 C 857.531 318.002 858.646 320.418 858.646 322.833 C 858.646 327.664 858.46 327.664 837.289 331.008 C 814.26 334.538 814.632 334.352 810.544 342.898 C 808.315 347.172 806.642 353.86 806.642 357.576 C 806.642 367.052 802.369 366.494 798.468 356.461 L 798.458 356.461 Z " fill="rgb(193,145,0)"/><path d=" M 656.364 354.789 C 646.517 349.959 645.588 347.543 649.861 338.254 C 657.85 320.232 694.071 299.061 723.231 294.973 C 730.291 293.859 732.335 294.416 736.422 297.946 C 739.209 300.361 741.996 304.449 742.553 307.236 C 743.668 311.323 742.739 313.367 738.28 317.454 C 728.619 326.186 720.816 331.946 709.12 338.44 C 699.273 344.013 696.858 344.756 685.534 344.385 L 673.085 343.827 L 670.298 350.144 C 666.768 358.877 665.468 359.248 656.364 354.789 L 656.364 354.789 Z " fill="rgb(193,145,0)"/><path d=" M 398.54 350.33 C 395.01 346.429 393.152 345.871 382.747 346.243 C 372.157 346.8 369.928 346.243 360.833 340.297 C 338.361 326.177 327.4 316.897 327.4 311.509 C 327.4 309.279 329.258 305.006 331.487 302.219 C 335.389 297.389 335.946 297.203 347.651 298.132 C 363.629 299.432 380.899 306.121 398.177 317.64 C 412.112 326.744 424.365 340.855 421.021 343.827 C 420.092 344.756 415.633 347.543 410.988 350.144 L 402.627 354.975 L 398.54 350.33 L 398.54 350.33 Z " fill="rgb(193,145,0)"/><path d=" M 322.012 294.425 C 317.367 276.961 312.722 256.719 310.678 246.5 C 306.219 223.285 305.476 222.17 295.072 218.083 C 288.197 215.482 285.411 213.438 285.039 210.466 C 284.667 208.422 285.596 206.192 286.897 205.635 C 289.87 204.52 314.385 216.039 317.915 220.127 C 320.516 223.471 324.046 237.591 329.434 265.822 C 333.893 289.966 333.893 294.425 329.62 298.141 C 324.789 302.6 324.046 302.229 322.002 294.425 L 322.012 294.425 Z " fill="rgb(193,145,0)"/><path d=" M 739.023 294.797 C 735.865 291.638 736.051 288.851 742.739 255.79 C 750.542 216.597 749.799 217.897 766.511 209.722 C 781.375 202.476 786.205 202.105 786.205 208.05 C 786.205 210.466 783.047 212.881 775.429 216.225 L 764.468 220.87 L 761.309 237.405 C 758.336 252.269 754.063 270.653 748.861 290.719 C 747.003 297.965 743.659 299.451 739.014 294.806 L 739.023 294.797 Z " fill="rgb(193,145,0)"/><path d=" M 450.367 304.82 C 438.847 300.547 429.01 272.13 432.902 254.851 C 435.875 242.032 450.367 213.243 460.576 200.423 L 468.937 189.647 L 458.904 169.777 L 449.057 149.906 L 428.629 136.344 C 406.157 121.48 392.223 109.041 393.709 105.14 C 395.195 101.238 399.097 101.981 405.786 107.927 C 409.13 110.713 421.578 119.446 433.459 127.063 C 456.303 142.112 461.505 147.863 471.166 169.786 L 475.811 180.376 L 489.374 166.256 C 510.173 144.899 525.408 138.954 538.599 147.12 C 541.758 148.977 550.862 156.967 558.47 164.584 L 572.404 178.333 L 576.306 170.901 C 579.836 164.212 585.41 155.294 598.034 136.724 C 600.45 133.194 604.537 129.293 607.324 127.806 C 619.587 121.489 658.965 109.97 663.239 111.271 C 664.353 111.828 665.468 114.429 665.468 117.402 C 665.468 122.047 664.353 122.976 656.736 125.577 C 651.719 127.249 642.058 129.479 635.193 130.407 C 616.985 133.009 609.377 137.653 601.76 150.278 C 598.23 156.223 591.913 166.814 587.639 173.679 L 579.836 186.313 L 591.913 206.183 C 606.033 229.398 612.898 248.349 614.57 268.962 C 615.685 283.268 615.499 283.826 609.925 291.62 C 606.581 296.079 602.679 299.423 600.636 299.423 C 598.592 299.423 596.362 300.352 595.619 301.467 C 593.576 304.811 564.23 302.21 551.224 297.565 C 538.404 292.92 524.479 293.292 503.856 298.68 C 488.621 302.582 454.816 306.483 450.357 304.811 L 450.367 304.82 Z  M 465.973 282.534 C 480.465 275.66 486.958 257.648 483.438 234.609 C 479.908 212.695 470.061 206.006 459.665 218.817 C 451.305 228.85 442.573 251.136 442.573 262.097 C 442.573 272.873 446.846 284.012 451.305 285.126 C 457.064 286.613 457.993 286.427 465.982 282.525 L 465.973 282.534 Z  M 599.716 279.933 C 606.404 269.715 598.044 236.653 584.667 219.941 C 570.547 202.291 556.064 229.788 564.239 259.506 C 567.397 271.582 571.299 276.598 580.96 281.606 C 589.321 286.065 596.195 285.321 599.725 279.933 L 599.716 279.933 Z " fill="rgb(193,145,0)"/><path d=" M 239.724 641.588 C 233.593 634.899 233.036 633.227 231.735 618.373 C 231.178 609.641 230.992 601.466 231.735 600.537 C 232.293 599.422 233.593 591.248 234.708 582.329 C 236.566 564.679 246.784 521.965 254.03 500.971 C 256.446 493.911 259.418 484.25 260.533 479.8 C 262.019 474.226 265.364 469.024 271.309 463.078 C 279.298 455.089 311.245 430.76 343.192 408.093 C 350.252 402.891 362.886 393.787 371.237 387.665 C 379.598 381.534 390.746 374.102 396.31 370.944 C 401.884 367.971 413.775 361.097 423.055 355.709 C 432.159 350.321 444.598 343.261 450.543 340.102 C 456.303 336.758 461.133 333.414 461.133 332.485 C 461.133 328.583 454.631 328.955 443.855 333.6 C 429.549 339.545 426.762 339.731 422.869 333.6 C 419.897 329.326 419.897 328.397 422.498 323.938 C 424.727 320.223 424.913 317.807 423.427 314.835 C 422.126 311.862 422.312 309.818 423.984 307.774 C 427.328 303.873 431.973 304.244 442.563 309.632 C 455.569 316.135 464.292 315.763 505.714 306.288 C 527.257 301.457 541.005 301.457 562.557 306.474 C 594.69 313.906 606.209 313.162 607.51 303.687 C 607.882 301.086 609.925 299.414 613.827 298.671 C 621.073 297.184 622.745 298.485 622.745 304.802 C 622.745 309.075 623.674 310.375 628.133 311.119 C 634.264 312.419 637.051 317.807 634.078 323.195 C 632.778 325.796 633.149 327.097 635.936 328.769 C 640.767 331.742 640.395 337.687 635.565 338.988 C 633.335 339.545 626.275 337.873 619.587 335.272 C 609.554 331.184 607.138 330.813 605.838 333.042 C 603.422 336.944 603.794 340.288 606.767 340.288 C 608.253 340.288 628.309 348.649 651.533 358.867 C 674.748 369.272 696.3 378.004 699.459 378.561 C 708.563 380.048 729.92 390.081 745.34 400.104 C 752.958 405.121 764.848 412.552 771.899 417.011 C 778.774 421.284 789.178 428.345 795.114 432.804 C 800.874 437.077 811.65 444.88 819.072 449.896 C 826.318 454.913 834.121 461.601 836.351 464.574 C 843.039 474.05 850.843 493.177 856.779 514.729 C 859.937 526.062 863.839 538.315 865.325 541.845 C 868.484 549.834 875.358 581.781 875.358 589.399 C 875.358 596.831 868.855 610.013 860.494 619.302 L 853.434 627.291 L 835.784 627.291 C 821.292 627.291 814.984 626.177 801.608 621.903 C 769.289 611.313 749.781 603.696 737.899 597.202 C 720.435 587.355 683.843 549.834 663.601 520.674 C 651.338 502.838 636.113 461.053 621.621 405.882 C 615.118 380.995 611.217 373.192 608.43 380.438 C 607.129 383.968 618.834 431.522 628.486 461.053 C 632.388 473.687 635.36 485.569 634.617 487.427 C 633.317 491.7 626.071 493.558 621.24 490.957 C 617.153 488.727 615.295 489.842 615.295 494.672 C 615.295 499.132 608.792 502.476 602.289 501.547 C 598.759 500.989 596.53 501.918 595.043 504.334 C 593.185 507.121 591.513 507.678 586.311 506.563 C 582.595 506.006 578.694 505.077 577.207 504.52 C 575.907 503.962 574.235 505.077 573.491 507.306 C 571.633 513.252 564.016 514.367 557.513 509.536 C 553.054 506.192 551.939 506.006 551.01 508.235 C 549.896 511.022 541.907 513.995 537.262 513.252 C 535.776 512.88 532.245 511.022 529.459 509.164 C 524.442 505.449 524.442 505.449 520.54 509.35 C 515.524 514.367 509.021 513.995 501.961 508.05 C 496.573 503.591 495.83 503.405 494.158 506.192 C 491.743 510.836 483.196 510.093 475.207 504.705 C 468.89 500.432 467.961 500.246 464.245 502.847 C 457.557 507.492 453.098 506.192 448.267 498.203 C 444.551 492.257 442.879 491.142 439.349 491.886 C 436.376 492.629 434.704 492.071 433.775 489.656 C 432.475 486.126 433.775 480.552 447.152 435.971 C 461.458 387.86 464.617 374.121 461.83 371.706 C 458.114 368.547 456.07 370.963 453.655 381.553 C 452.54 386.941 448.639 401.423 444.923 413.686 C 427.83 472.944 418.735 499.317 407.402 523.275 C 403.315 531.45 395.883 548.162 390.495 560.424 C 368.952 610.022 363.936 618.197 351.116 624.69 C 314.524 643.455 307.464 645.304 267.714 647.719 L 246.357 649.02 L 239.668 641.588 L 239.724 641.588 Z  M 315.509 561.158 C 332.602 529.397 332.416 529.769 349.686 520.107 C 358.232 515.277 365.664 510.446 366.221 509.146 C 367.893 504.129 361.576 504.501 349.871 509.703 C 331.664 518.064 327.771 518.621 303.061 515.649 C 280.032 513.047 277.245 513.233 277.245 517.692 C 277.245 520.851 279.66 521.594 303.247 524.381 C 314.023 525.681 323.117 526.796 323.489 527.168 C 323.86 527.539 318.101 539.058 310.669 552.983 C 298.407 576.384 295.991 585.116 301.937 583.258 C 303.052 582.887 309.369 572.854 315.5 561.158 L 315.509 561.158 Z  M 781.18 562.459 C 780.994 558.557 773.748 542.588 762.415 519.922 C 761.857 518.807 779.136 510.075 797.892 502.271 C 800.864 500.971 802.908 498.927 802.536 497.627 C 801.236 494.097 791.389 493.725 785.258 497.069 C 782.285 498.741 773.553 502.086 766.121 504.687 L 752.558 509.146 L 732.13 501.9 C 720.983 497.812 710.03 493.539 707.987 492.424 C 704.828 490.752 703.342 490.938 701.112 493.353 C 697.211 497.255 698.883 498.741 715.233 504.501 C 722.85 507.102 734.369 512.304 741.048 515.649 L 753.125 521.965 L 763.715 543.137 C 769.475 554.656 774.863 565.237 775.606 566.537 C 778.207 570.439 781.551 567.838 781.18 562.45 L 781.18 562.459 Z  M 371.414 468.095 C 384.977 455.461 394.257 442.836 394.257 436.705 C 394.257 433.361 393.328 431.317 391.656 431.317 C 387.569 431.317 372.334 445.995 364.354 457.505 C 351.906 475.898 355.993 482.02 371.414 468.095 L 371.414 468.095 Z  M 708.182 457.69 C 708.182 454.16 676.049 416.454 673.076 416.454 C 672.147 416.454 670.475 417.754 669.174 419.241 C 666.388 422.585 666.388 422.213 684.595 443.942 C 691.47 452.117 698.158 459.363 699.459 459.734 C 704.475 461.778 708.191 460.849 708.191 457.69 L 708.182 457.69 Z  M 582.8 454.718 C 601.193 449.701 606.014 446.915 606.014 440.783 C 606.014 432.051 604.156 429.45 598.397 429.45 C 592.637 429.45 588.364 435.024 589.85 440.598 C 590.593 443.384 588.921 444.313 580.375 445.986 C 574.801 447.1 567.741 448.029 564.954 448.029 C 558.823 448.029 556.594 450.816 559.566 454.532 C 562.353 458.062 570.714 458.062 582.781 454.718 L 582.8 454.718 Z  M 498.468 448.029 C 502.927 445.614 503.113 440.598 498.654 440.598 C 496.796 440.598 494.567 439.854 493.638 439.111 C 492.523 438.182 486.949 436.51 481.004 435.21 C 472.643 433.352 469.67 433.352 467.627 435.024 C 463.539 438.368 464.282 443.384 469.113 445.8 C 476.545 449.516 493.071 450.816 498.459 448.029 L 498.468 448.029 Z  M 536.918 433.352 C 539.705 431.494 543.792 429.264 546.208 428.707 C 554.197 426.106 550.295 424.062 538.59 424.619 C 523.169 425.363 520.94 426.663 526.328 432.423 C 531.344 437.811 530.787 437.811 536.918 433.352 L 536.918 433.352 Z  M 501.441 405.678 C 508.687 398.989 504.228 395.645 487.507 395.273 C 471.714 395.088 465.964 398.432 475.616 401.962 C 478.96 403.263 481.561 405.306 481.561 406.421 C 481.561 412.181 495.124 411.623 501.432 405.678 L 501.441 405.678 Z  M 575.925 396.388 C 576.483 392.672 575.925 392.301 566.45 392.301 C 554.559 392.301 550.286 393.601 550.286 396.946 C 550.286 400.476 553.444 401.405 565.149 401.033 C 574.253 400.661 575.368 400.104 575.925 396.388 Z  M 560.504 360.725 C 564.592 362.955 565.521 362.769 568.865 359.796 C 577.04 352.365 572.952 350.507 549.357 350.507 C 538.581 350.507 536.351 351.064 535.794 353.851 C 535.422 355.523 536.537 357.567 538.395 358.31 C 540.253 358.867 543.226 361.097 545.27 363.141 C 548.985 366.856 548.985 366.856 552.515 362.583 C 555.674 358.682 556.417 358.496 560.504 360.725 L 560.504 360.725 Z  M 501.803 356.638 C 504.033 350.692 501.06 347.72 492.514 347.72 C 484.524 347.72 480.623 351.807 483.596 357.381 C 484.896 359.796 487.683 360.725 492.885 360.725 C 498.831 360.725 500.503 359.982 501.803 356.638 Z  M 590.779 336.396 C 591.151 332.68 590.408 331.194 587.249 330.45 C 581.861 328.964 575.73 332.308 577.031 336.024 C 577.588 337.511 578.145 339.554 578.145 340.483 C 578.145 341.598 580.932 342.155 584.277 341.784 C 589.107 341.412 590.408 340.297 590.779 336.396 L 590.779 336.396 Z  M 489.922 322.647 C 489.922 316.888 480.818 317.445 480.075 323.204 C 479.517 326.92 480.075 327.478 484.72 326.92 C 488.435 326.549 489.922 325.434 489.922 322.647 Z  M 611.588 317.445 C 611.588 313.915 609.73 312.429 606.758 313.729 C 602.856 315.215 603.599 319.86 607.872 319.86 C 609.916 319.86 611.588 318.745 611.588 317.445 Z  M 555.488 315.773 C 554.931 314.472 553.444 313.358 552.144 313.358 C 550.843 313.358 549.357 314.472 548.985 315.773 C 548.428 317.073 549.728 318.002 552.144 318.002 C 554.559 318.002 555.86 317.073 555.488 315.773 Z " fill="rgb(193,145,0)"/><path d=" M 352.482 672.234 C 349.881 668.147 350.066 666.661 355.083 652.912 C 364.372 627.096 393.347 576.198 398.921 576.198 C 400.221 576.198 405.052 578.985 409.511 582.329 C 419.544 589.947 419.915 593.477 414.713 616.878 C 406.724 652.169 403.38 661.459 397.248 665.918 C 387.03 673.349 377.554 676.508 366.23 676.508 C 356.941 676.508 354.897 675.95 352.482 672.234 L 352.482 672.234 Z  M 371.804 636.572 C 371.804 635.643 370.689 636.757 369.203 639.358 C 367.717 641.96 366.602 644.932 366.602 645.861 C 366.602 646.976 367.717 645.675 369.203 643.074 C 370.689 640.473 371.804 637.686 371.804 636.572 Z " fill="rgb(193,145,0)"/><path d=" M 537.299 791.857 C 530.982 790.371 517.791 783.125 507.767 776.065 C 495.691 767.704 485.853 756.928 479.35 745.232 C 476.192 739.659 468.203 725.538 461.7 714.029 C 442.377 680.038 436.999 658.672 431.425 594.034 C 429.381 570.262 431.611 527.539 435.698 515.091 C 438.299 507.102 443.502 505.616 450.004 511.189 C 455.021 515.649 455.392 515.649 460.037 512.118 C 465.611 507.845 470.627 508.774 479.545 515.834 C 487.534 522.151 487.72 522.337 490.321 518.621 C 493.851 513.605 497.753 513.976 507.414 520.479 L 515.775 526.239 L 519.862 521.036 L 524.136 515.834 L 531.567 520.107 C 540.485 525.124 542.715 525.124 550.147 521.036 C 555.534 517.878 556.092 517.878 560.922 520.851 C 566.125 524.009 566.31 523.823 572.256 518.064 C 577.644 512.862 578.758 512.49 583.775 514.348 C 586.933 515.463 589.72 515.649 590.278 514.905 C 591.764 512.49 602.54 507.474 606.07 507.474 C 607.742 507.474 609.972 508.403 611.086 509.517 C 612.573 511.004 613.873 510.075 615.731 506.173 C 618.518 500.228 624.835 498.556 631.338 501.9 C 639.327 506.359 640.442 513.047 640.256 554.841 C 640.07 599.237 636.168 636.2 629.48 658.857 C 626.879 667.032 622.791 680.957 620.19 689.69 C 617.589 698.608 615.36 706.783 615.36 708.083 C 615.36 713.843 590.473 760.653 581.926 770.863 C 568.735 786.655 550.537 795.378 537.345 791.848 L 537.299 791.857 Z  M 569.803 750.435 C 584.481 747.462 592.089 739.844 600.078 719.788 C 603.237 711.427 606.024 703.253 606.024 701.58 C 606.024 697.121 601.193 696.192 592.832 699.537 C 569.989 708.826 513.703 710.313 489.374 702.509 C 475.253 698.05 471.166 697.865 469.68 701.58 C 466.893 708.826 485.286 742.26 494.195 746.347 C 506.086 751.921 550.853 754.336 569.794 750.435 L 569.803 750.435 Z  M 585.41 673.349 C 613.455 667.776 621.816 658.672 620.516 634.714 L 619.958 625.424 L 613.455 625.981 C 609.925 626.353 601.936 628.211 595.805 630.069 C 579.827 635.271 563.301 637.501 541.563 637.501 C 522.426 637.501 482.304 632.856 478.784 630.255 C 475.439 627.654 451.853 622.266 449.066 623.38 C 443.678 625.424 446.651 652.355 452.968 656.814 C 458.913 661.273 487.887 670.934 502.937 673.535 C 524.293 677.251 566.273 677.251 585.41 673.349 L 585.41 673.349 Z  M 581.88 594.963 C 595.257 593.663 611.597 587.717 619.401 581.215 C 624.603 577.127 626.461 569.51 626.461 552.798 C 626.461 534.218 625.16 533.104 611.969 538.677 C 607.138 540.907 595.248 543.88 585.596 545.366 C 559.78 549.453 513.713 545.923 476.006 537.005 C 471.361 535.891 464.115 534.59 459.842 534.033 C 449.438 532.732 447.765 536.262 447.58 559.849 C 447.208 576.013 447.58 578.614 450.738 580.834 C 454.826 583.807 478.969 591.981 489.931 594.025 C 500.15 595.883 549.375 598.298 559.585 597.184 C 564.23 596.812 574.262 595.883 581.871 594.954 L 581.88 594.963 Z " fill="rgb(193,145,0)"/></g></g></g></svg>