<?xml version="1.0" encoding="UTF-8" standalone="no"?><!-- Generator: Gravit.io --><svg xmlns="http://www.w3.org/2000/svg" xmlns:xlink="http://www.w3.org/1999/xlink" style="isolation:isolate" viewBox="0 0 1062.8 930.6" width="1062.8pt" height="930.6pt"><defs><clipPath id="_clipPath_I4Sw6CVF9W8EkYEpdkfFrAvGo87ywKoX"><rect width="1062.8" height="930.6"/></clipPath></defs><g clip-path="url(#_clipPath_I4Sw6CVF9W8EkYEpdkfFrAvGo87ywKoX)"><g><path d=" M 780.066 930.604 L 531.424 930.604 L 282.782 930.604 C 271.743 930.604 258.301 922.843 252.782 913.284 L 128.46 697.953 L 4.139 482.623 C -1.38 473.063 -1.38 457.541 4.139 447.981 L 128.46 232.651 L 252.782 17.321 C 258.301 7.761 271.743 0 282.782 0 L 531.424 0 L 780.066 0 C 791.104 0 804.547 7.761 810.066 17.321 L 934.387 232.651 L 1058.708 447.981 C 1064.227 457.541 1064.227 473.063 1058.708 482.623 L 934.387 697.953 L 810.066 913.284 C 804.547 922.843 791.104 930.604 780.066 930.604 Z " fill="rgb(59,57,55)"/><g><path d=" M 335.058 846.056 C 323.458 833.256 313.268 794.266 317.858 780.076 C 322.058 767.676 325.058 759.476 332.858 740.886 C 338.058 728.286 340.458 719.296 340.458 712.896 C 340.458 707.496 341.258 698.296 342.258 692.296 C 345.658 673.096 348.058 631.306 346.058 629.306 C 344.058 627.306 366.058 582.516 373.448 573.316 C 377.248 568.716 385.048 557.516 390.648 548.526 C 410.248 516.936 412.838 513.936 430.838 504.936 L 447.238 496.536 L 452.038 501.136 C 461.038 509.536 461.438 512.136 453.838 520.336 C 450.038 524.736 446.238 531.136 445.438 534.736 C 442.438 548.736 423.848 578.526 401.048 605.716 C 393.248 615.116 392.448 617.116 390.648 632.706 C 387.848 656.296 386.648 670.096 385.248 695.496 C 383.848 722.886 377.048 741.886 356.258 776.076 C 343.058 797.866 340.458 815.466 347.458 836.466 C 349.258 841.866 350.258 847.266 349.458 848.466 C 347.258 852.066 339.258 850.666 335.058 846.066 L 335.058 846.056 Z " fill="rgb(183,123,77)"/><path d=" M 715.168 847.456 C 714.568 845.856 715.368 840.256 717.168 835.056 C 723.568 816.056 720.368 795.666 707.768 775.866 C 698.768 761.866 692.568 749.476 685.578 731.876 C 680.978 720.276 679.978 713.676 678.378 686.886 C 677.378 669.686 675.578 646.896 674.178 636.496 C 671.978 619.096 670.978 616.696 663.578 606.706 C 642.778 579.516 630.988 561.916 620.388 542.526 C 614.188 530.926 607.788 519.536 606.188 517.136 C 603.788 513.136 603.988 512.136 609.388 506.536 C 616.588 498.936 621.188 498.936 637.578 506.936 C 651.378 513.736 650.978 513.136 677.368 554.526 C 682.568 562.726 689.368 572.326 692.568 575.916 C 695.568 579.516 700.968 588.516 704.368 595.916 C 707.968 603.316 712.568 613.316 714.768 617.906 C 717.368 623.506 718.968 632.106 719.568 643.896 C 723.568 722.276 723.768 724.276 743.358 769.666 C 748.158 780.666 748.758 789.866 746.358 804.856 C 743.958 818.856 735.358 839.446 728.758 847.046 C 725.158 851.246 716.558 851.446 715.158 847.446 L 715.168 847.456 Z " fill="rgb(183,123,77)"/><path d=" M 358.458 514.336 C 338.458 511.336 328.668 510.936 320.668 512.136 L 310.068 513.936 L 296.668 502.136 C 289.468 495.736 274.078 483.936 262.678 475.946 C 251.278 468.146 238.088 457.746 233.288 453.156 C 214.688 434.556 194.698 391.966 200.298 382.976 C 200.898 381.776 204.098 380.576 207.498 380.176 C 212.698 379.576 213.498 380.376 215.098 386.776 C 216.098 391.176 220.498 397.976 226.098 403.776 C 245.898 424.376 287.288 461.766 297.678 468.156 C 308.478 474.756 309.078 474.956 334.868 475.756 L 361.258 476.556 L 381.258 466.756 C 397.458 458.956 425.648 446.556 427.448 446.556 C 428.048 446.556 433.848 460.556 437.648 470.946 C 439.448 476.146 442.248 481.546 443.648 482.746 C 445.248 483.946 446.448 486.346 446.448 487.746 C 446.448 490.146 391.058 518.736 387.258 518.336 C 386.258 518.136 373.258 516.336 358.468 514.336 L 358.458 514.336 Z " fill="rgb(183,123,77)"/><path d=" M 668.378 515.336 C 665.578 513.736 655.378 508.736 645.588 504.136 C 635.788 499.336 626.788 494.136 625.788 492.136 C 624.188 489.736 625.188 485.536 629.988 475.136 C 633.388 467.736 636.788 459.136 637.588 455.936 C 638.188 452.936 639.588 450.136 640.388 449.536 C 642.588 448.136 657.188 453.936 682.578 466.336 L 703.378 476.536 L 729.968 475.736 C 756.758 474.736 756.758 474.736 767.958 467.336 C 774.358 463.336 783.358 455.936 788.358 450.736 C 793.358 445.736 804.558 435.336 813.348 427.546 C 841.538 402.556 846.338 396.756 851.138 381.956 C 851.938 379.156 853.538 378.556 856.738 379.756 C 864.938 382.156 865.938 383.956 864.138 393.956 C 862.338 402.756 857.138 414.956 848.138 431.146 C 840.538 444.546 824.348 460.336 803.348 474.536 C 792.148 482.336 776.958 494.136 769.558 500.726 L 756.158 513.126 L 744.358 511.926 C 736.758 511.126 721.568 512.126 703.168 514.526 C 686.968 516.726 673.778 518.526 673.578 518.326 C 673.578 518.326 671.178 516.926 668.378 515.326 L 668.378 515.336 Z " fill="rgb(183,123,77)"/><path d=" M 419.438 437.556 C 418.438 437.156 414.038 436.356 410.038 435.556 C 405.238 434.756 398.838 431.156 392.038 425.156 C 386.238 420.156 377.638 414.356 373.038 412.356 C 368.438 410.156 364.038 407.556 363.438 406.556 C 362.438 404.956 340.448 388.356 321.248 374.566 C 300.848 359.966 297.858 356.766 283.858 334.776 C 275.658 321.976 264.858 304.186 259.668 295.186 C 254.468 285.986 249.268 278.186 248.268 277.386 C 245.668 275.786 246.268 233.996 249.268 217.596 C 252.468 198.996 257.068 192.206 265.268 193.006 C 270.468 193.606 271.468 194.406 271.068 198.606 C 269.868 210.406 270.068 216.806 272.468 237.596 C 274.668 258.196 275.468 260.586 284.068 274.586 C 289.068 282.786 297.068 296.576 302.068 304.976 C 315.668 328.966 327.858 339.966 351.458 350.366 C 362.458 355.166 381.448 364.366 393.848 370.766 C 406.048 377.166 417.438 382.566 419.038 382.566 C 422.638 382.566 424.238 388.566 426.438 409.956 C 428.638 431.156 426.438 439.946 419.438 437.546 L 419.438 437.556 Z " fill="rgb(183,123,77)"/><path d=" M 647.588 426.156 C 645.988 412.556 646.188 390.566 647.988 386.166 C 650.188 380.566 673.378 367.566 711.378 350.976 C 720.178 347.176 730.178 342.176 733.368 339.776 C 742.968 332.976 754.168 320.376 759.558 309.986 C 762.358 304.586 768.558 294.186 773.358 286.596 C 787.558 264.606 790.358 257.806 790.358 246.206 C 790.358 240.406 791.558 230.206 792.958 223.416 C 794.558 215.616 794.958 209.016 793.758 204.816 C 792.958 201.016 792.558 196.816 793.158 195.416 C 794.958 191.016 803.158 192.216 808.358 197.616 C 814.158 203.816 816.358 216.216 817.358 248.606 L 818.158 273.596 L 810.158 286.596 C 805.758 293.796 794.158 312.386 784.368 328.186 C 767.568 355.376 763.968 359.776 745.578 372.576 C 743.178 374.176 732.578 382.176 721.788 390.576 C 710.988 398.776 699.198 407.176 695.798 408.976 C 687.798 413.376 673.208 423.776 664.808 430.966 C 661.208 433.966 656.208 436.566 653.608 436.566 C 649.408 436.566 648.808 435.366 647.608 426.166 L 647.588 426.156 Z " fill="rgb(183,123,77)"/><path d=" M 398.448 347.776 C 372.258 326.576 362.058 315.186 356.058 300.186 C 353.658 294.386 350.858 288.986 349.658 288.186 C 344.458 284.786 343.858 167.416 349.058 161.016 C 350.258 159.416 351.058 154.616 350.658 150.216 C 350.258 142.016 361.058 115.826 368.058 107.826 C 372.058 103.426 406.048 79.636 410.448 78.236 C 412.048 77.836 415.048 79.436 417.248 82.236 C 421.048 87.036 421.048 87.236 417.448 94.036 C 415.248 97.836 411.248 102.236 408.248 103.836 C 400.848 107.636 394.448 116.036 394.448 122.436 C 394.448 128.236 389.848 142.036 385.048 151.426 C 381.048 159.026 381.248 187.816 385.648 221.406 C 387.248 233.606 388.448 250.596 388.448 259.396 C 388.448 274.596 388.848 276.396 396.048 287.586 C 408.448 307.786 419.238 322.376 421.638 322.576 C 423.038 322.576 427.238 326.576 431.038 331.376 C 437.638 339.176 438.038 340.576 436.438 346.776 C 433.838 355.776 427.038 366.576 424.038 366.576 C 422.638 366.576 411.038 358.176 398.448 347.776 L 398.448 347.776 Z " fill="rgb(183,123,77)"/><path d=" M 644.788 357.976 C 643.388 355.576 641.588 349.976 640.588 345.576 C 639.588 341.176 637.988 335.576 637.388 333.176 C 636.188 329.776 637.388 327.376 641.988 323.176 C 649.988 315.576 659.988 302.176 669.178 286.586 C 676.178 274.786 676.778 272.586 675.778 262.996 C 675.178 257.196 676.378 239.206 678.378 223.006 C 680.378 206.806 682.178 186.016 682.578 176.616 C 682.778 161.616 682.178 157.816 676.778 145.226 C 673.378 137.226 669.978 126.626 669.178 121.636 C 668.178 114.236 666.578 111.436 660.578 107.236 C 645.178 96.036 641.178 87.636 647.778 80.246 C 650.978 76.846 651.378 76.846 660.178 81.846 C 683.968 95.646 697.768 108.036 703.768 120.836 C 713.968 143.026 714.768 145.426 713.768 151.626 C 713.168 155.426 713.768 159.826 715.368 161.826 C 718.568 166.626 720.368 221.416 718.568 258.006 C 717.368 278.006 716.368 285.396 713.968 287.996 C 712.168 289.996 709.968 294.396 709.168 297.596 C 706.168 310.196 693.368 324.786 663.378 349.786 C 647.578 362.986 647.378 363.186 644.778 357.986 L 644.788 357.976 Z " fill="rgb(183,123,77)"/><path d=" M 515.418 822.066 C 504.418 818.066 483.428 803.066 477.428 794.476 C 474.228 789.876 470.628 785.076 469.428 783.876 C 462.228 775.276 456.028 765.476 449.428 752.486 C 445.428 744.286 440.628 736.086 439.228 734.286 C 437.628 732.486 434.028 723.886 431.228 715.286 C 425.028 695.686 422.828 658.696 426.228 623.506 C 428.628 596.716 432.028 583.116 444.628 550.526 C 453.028 528.736 455.628 524.936 468.418 516.136 L 473.418 512.936 L 467.218 506.136 C 459.418 497.936 456.018 491.336 447.018 466.746 C 438.818 443.956 434.418 422.956 434.418 405.956 C 434.418 385.156 438.618 358.366 444.418 341.176 C 448.818 327.776 449.418 324.176 447.218 322.576 C 436.418 313.376 448.018 270.186 465.418 254.996 C 472.418 248.796 486.418 240.596 490.208 240.596 C 491.208 240.596 492.808 243.996 493.808 247.996 C 495.008 253.196 496.808 255.796 499.408 256.396 C 506.608 257.596 508.408 260.596 507.208 269.396 C 506.608 273.796 505.208 279.996 504.408 282.996 C 502.208 289.996 502.408 289.996 538.998 291.396 C 558.998 291.996 566.388 291.596 566.388 289.996 C 566.388 288.596 564.988 281.796 563.588 274.596 C 560.588 260.996 560.988 259.396 567.388 258.196 C 570.588 257.596 571.388 255.796 571.588 249.596 C 571.788 245.196 571.988 240.996 572.188 239.996 C 572.588 237.596 586.388 244.196 599.378 252.796 C 611.978 261.396 622.168 274.186 630.368 291.586 C 634.368 300.586 634.568 302.386 632.368 309.586 C 628.968 320.586 629.168 325.586 633.368 340.576 C 638.768 360.576 638.768 426.356 633.168 447.546 C 631.168 454.946 619.568 481.536 615.168 488.536 C 612.968 492.336 606.768 499.536 601.768 504.336 L 592.568 513.136 L 597.168 516.736 C 603.368 521.736 610.768 536.336 618.958 560.526 C 625.958 580.726 627.758 588.916 632.558 619.516 C 634.758 633.916 631.958 685.896 628.558 695.096 C 627.558 697.496 625.758 704.496 624.358 710.496 C 622.958 716.496 620.958 722.896 620.158 724.496 C 619.158 726.096 614.958 735.696 610.758 745.696 C 600.758 769.286 578.768 802.686 569.368 808.486 C 545.378 823.286 529.978 827.286 515.378 822.086 L 515.418 822.066 Z  M 553.208 776.076 C 554.808 773.476 558.208 764.676 561.008 756.476 C 582.998 691.896 585.998 632.706 570.408 579.316 C 563.608 556.926 559.408 547.326 552.608 538.526 C 547.008 531.326 545.808 534.526 550.208 544.726 C 556.608 559.126 566.008 612.706 567.408 642.506 C 569.608 686.496 563.408 733.686 551.208 766.076 C 545.608 780.876 545.808 780.476 548.408 780.476 C 549.408 780.476 551.608 778.476 553.208 776.076 Z  M 597.398 344.576 C 597.398 342.976 595.398 341.376 592.998 340.976 C 588.598 340.376 586.598 344.176 589.798 347.376 C 592.198 349.576 597.398 347.776 597.398 344.576 L 597.398 344.576 Z  M 482.028 343.176 C 483.028 339.776 476.828 337.376 474.028 340.176 C 472.828 341.376 472.628 343.176 473.428 344.576 C 475.228 347.376 480.828 346.376 482.028 343.176 Z  M 554.408 341.576 C 556.408 339.176 556.408 337.976 554.408 335.576 C 551.208 331.776 546.608 331.776 545.208 335.576 C 544.008 338.576 547.408 344.576 550.408 344.576 C 551.208 344.576 553.008 343.176 554.408 341.576 Z  M 524.418 339.576 C 526.418 337.176 526.418 335.976 524.418 333.576 C 519.418 327.576 512.218 332.176 515.218 339.576 C 515.818 341.176 517.618 342.576 519.018 342.576 C 520.618 342.576 523.018 341.176 524.418 339.576 Z  M 612.998 341.376 C 614.798 339.376 612.198 334.576 609.398 334.576 C 605.998 334.576 603.798 337.976 605.398 340.576 C 606.798 342.776 610.998 343.176 612.998 341.376 Z  M 467.628 334.376 C 468.228 333.176 467.428 330.776 465.828 328.976 C 463.228 326.576 462.028 326.376 459.628 328.376 C 458.028 329.776 457.228 332.176 457.828 333.776 C 459.028 337.176 465.628 337.576 467.628 334.376 Z  M 597.998 329.176 C 601.998 323.576 600.798 317.176 594.398 311.776 C 586.398 305.176 575.798 303.176 565.608 306.776 C 550.608 311.976 549.208 328.166 563.208 332.566 C 572.408 335.366 594.798 333.166 597.998 329.166 L 597.998 329.176 Z  M 514.018 330.176 C 518.018 325.176 519.018 313.376 515.418 309.976 C 510.218 304.576 497.218 301.576 489.028 303.776 C 475.628 306.976 467.038 326.566 477.028 330.566 C 484.028 333.366 511.618 332.966 514.018 330.166 L 514.018 330.176 Z " fill="rgb(183,123,77)"/></g></g></g></svg>