<?xml version="1.0" encoding="UTF-8" standalone="no"?><!-- Generator: Gravit.io --><svg xmlns="http://www.w3.org/2000/svg" xmlns:xlink="http://www.w3.org/1999/xlink" style="isolation:isolate" viewBox="0 0 1062.8 930.6" width="1062.8pt" height="930.6pt"><defs><clipPath id="_clipPath_aPGWJDcJ8UzI6sjEeRQQcyL9wCOV4dvw"><rect width="1062.8" height="930.6"/></clipPath></defs><g clip-path="url(#_clipPath_aPGWJDcJ8UzI6sjEeRQQcyL9wCOV4dvw)"><g><g><path d=" M 281.533 846.713 C 276.933 842.114 279.133 835.514 290.733 819.723 C 296.933 811.123 309.333 793.133 318.123 779.734 C 326.923 766.334 334.923 755.344 335.923 755.344 C 339.323 754.943 352.923 762.143 353.123 764.143 C 353.123 765.344 345.723 775.943 336.523 787.933 C 312.933 819.324 304.733 830.524 298.933 839.923 C 293.533 848.524 286.333 851.524 281.533 846.723 L 281.533 846.713 Z " fill="rgb(0,0,0)"/><path d=" M 775.223 833.713 C 767.223 821.114 757.623 807.923 737.633 781.723 C 728.433 769.923 721.033 759.534 721.033 758.933 C 721.033 757.334 739.033 748.334 739.633 749.334 C 755.833 774.123 774.623 801.723 783.423 813.514 C 794.823 828.713 797.423 835.903 792.623 840.703 C 787.423 845.903 781.623 843.304 775.223 833.703 L 775.223 833.713 Z " fill="rgb(0,0,0)"/><path d=" M 340.123 750.534 C 335.523 745.933 332.123 739.133 328.523 727.943 C 325.723 719.344 319.523 700.953 314.323 687.354 C 309.323 673.754 303.323 655.564 300.923 646.764 C 296.723 631.564 296.723 630.764 300.123 627.163 C 302.523 624.564 306.323 623.163 311.323 623.163 C 317.723 623.163 318.523 622.564 317.723 619.163 C 317.123 616.963 318.123 612.963 319.923 610.163 C 326.123 600.764 362.313 579.173 367.113 582.173 C 368.313 582.774 369.113 590.574 369.113 599.173 L 369.113 614.973 L 353.313 631.173 C 339.913 644.973 336.713 647.373 331.923 646.774 C 327.523 646.373 325.923 644.774 324.723 639.373 C 323.723 635.774 322.323 633.173 321.723 633.774 C 319.523 636.173 325.523 648.774 331.123 653.973 C 334.323 656.774 337.523 661.574 338.123 664.574 C 340.323 674.774 353.523 713.963 360.513 730.754 C 364.113 739.754 366.713 748.153 365.913 749.354 C 364.513 751.754 352.713 757.153 348.913 757.153 C 347.713 757.153 343.713 754.153 340.113 750.554 L 340.123 750.534 Z " fill="rgb(0,0,0)"/><path d=" M 715.633 748.133 C 711.833 746.534 709.033 743.933 709.033 741.933 C 709.033 739.933 713.633 726.334 719.233 711.544 C 724.833 696.744 731.033 677.754 733.233 669.554 C 735.833 659.153 738.833 652.354 742.833 648.163 C 749.633 640.963 753.033 634.764 752.833 629.764 C 752.833 627.764 751.633 629.364 750.233 633.163 C 748.233 638.564 746.433 640.364 742.233 640.764 C 737.633 641.364 734.233 638.764 721.433 625.764 L 706.033 610.163 L 705.633 595.364 C 705.033 572.173 707.433 571.574 734.023 588.163 C 752.223 599.364 757.813 605.364 756.613 611.953 C 755.613 616.754 756.213 617.153 762.013 617.153 C 765.613 617.153 770.613 618.754 773.213 620.953 C 777.813 624.554 777.813 624.953 775.213 635.354 C 772.213 646.953 742.223 732.933 738.623 739.933 C 736.023 745.334 728.823 751.133 725.023 750.933 C 723.423 750.933 719.023 749.734 715.623 748.133 L 715.633 748.133 Z " fill="rgb(0,0,0)"/><path d=" M 202.353 583.574 C 200.353 581.774 200.953 575.574 203.353 573.973 C 204.553 573.373 211.353 572.373 218.753 571.973 C 228.553 571.373 235.553 569.574 246.743 564.173 C 254.943 560.373 263.143 557.173 264.943 557.173 C 266.743 557.173 269.543 555.973 270.943 554.774 C 272.943 552.574 274.543 553.574 279.343 558.774 C 288.343 568.973 286.743 571.574 269.143 574.774 C 260.943 576.173 249.743 578.574 244.153 580.173 C 233.353 583.173 204.163 585.574 202.363 583.574 L 202.353 583.574 Z " fill="rgb(0,0,0)"/><path d=" M 831.803 574.973 C 826.003 573.173 816.003 570.973 809.813 570.173 C 793.013 568.173 788.423 565.973 789.613 560.973 C 790.613 557.173 790.413 556.973 787.213 559.973 C 785.213 561.774 783.213 563.173 782.413 563.173 C 781.813 563.173 776.013 556.173 769.813 547.774 C 763.413 539.173 753.613 526.774 747.623 520.383 C 740.423 512.383 737.623 507.784 739.023 506.383 C 740.023 505.383 741.023 501.584 741.023 497.984 C 741.023 485.784 745.823 488.183 771.813 512.383 C 785.613 524.984 797.203 536.774 797.803 538.574 C 798.603 540.373 797.203 544.973 794.803 548.973 L 790.603 556.173 L 795.803 551.373 C 799.803 547.574 801.603 546.973 803.403 548.774 C 804.803 550.173 807.403 551.173 809.203 551.173 C 811.003 551.173 819.403 554.373 827.603 558.373 C 838.803 563.574 846.203 565.774 856.393 566.373 C 871.193 567.373 877.783 571.173 873.393 575.574 C 869.593 579.373 844.403 578.774 831.803 574.973 L 831.803 574.973 Z " fill="rgb(0,0,0)"/><path d=" M 282.333 559.183 C 279.533 554.784 277.133 549.183 277.133 546.784 C 277.133 541.383 324.323 494.994 329.123 495.794 C 330.723 495.994 332.323 498.794 332.723 502.193 C 333.123 505.594 334.523 509.393 335.523 510.794 C 337.123 512.594 335.523 515.794 329.323 522.794 C 324.723 527.994 314.923 539.994 307.733 549.784 C 300.133 559.784 293.133 567.183 291.133 567.183 C 289.133 567.183 285.333 563.584 282.333 559.183 Z " fill="rgb(0,0,0)"/><path d=" M 361.713 520.193 C 354.713 513.393 350.913 511.193 345.913 511.193 C 337.313 511.193 334.713 507.393 336.313 497.193 C 338.113 486.794 340.913 483.994 353.713 480.193 C 369.113 475.794 380.903 476.594 383.503 482.393 C 386.303 488.393 381.703 522.383 377.703 526.383 C 373.503 530.584 372.103 529.984 361.703 520.183 L 361.713 520.193 Z " fill="rgb(0,0,0)"/><path d=" M 695.243 518.794 C 694.243 516.193 692.443 506.393 691.043 496.804 C 688.043 476.604 689.043 474.213 700.843 472.213 C 709.443 470.814 729.233 475.614 734.033 480.413 C 737.233 483.614 739.833 494.814 738.633 500.413 C 738.233 503.014 735.433 504.614 729.433 505.614 C 723.033 506.614 718.433 509.213 712.633 515.213 C 703.633 524.213 697.833 525.413 695.233 518.814 L 695.243 518.794 Z " fill="rgb(0,0,0)"/><path d=" M 512.083 469.004 C 489.893 461.804 455.693 459.004 424.303 461.604 L 396.513 464.004 L 392.913 459.403 C 388.713 454.403 387.913 440.804 390.913 432.614 C 391.913 430.014 392.913 424.413 393.313 420.014 C 393.913 411.814 400.113 397.423 406.513 389.423 C 409.913 385.223 413.113 384.423 439.303 382.024 C 455.103 380.423 475.693 379.223 485.093 379.423 C 494.493 379.623 522.883 379.223 548.083 378.423 C 595.673 377.223 658.653 381.223 664.653 385.824 C 677.453 395.824 689.043 457.004 679.253 463.004 C 678.053 463.804 671.253 463.604 664.453 462.604 C 657.653 461.604 637.663 461.403 620.063 462.004 C 594.873 462.804 583.873 464.004 568.073 468.004 C 544.683 474.203 528.883 474.403 512.083 469.004 Z " fill="rgb(0,0,0)"/><path d=" M 361.513 467.604 C 353.913 463.403 347.113 454.203 347.113 448.004 C 347.113 441.004 337.513 406.213 330.913 389.014 C 325.713 375.814 325.113 371.814 326.513 365.623 C 327.913 359.623 329.513 357.824 335.113 355.824 C 340.713 353.824 341.113 353.423 337.513 353.423 C 334.913 353.223 319.113 346.623 302.523 338.423 C 285.723 330.223 267.333 322.024 261.533 320.223 C 246.333 315.423 242.533 305.623 254.333 301.223 C 258.533 299.623 262.933 300.623 279.323 307.223 C 290.323 311.623 302.513 317.223 306.713 319.824 C 310.713 322.423 323.913 329.223 335.703 335.024 C 349.903 342.024 356.903 346.623 356.303 348.423 C 355.703 350.024 357.503 351.423 361.103 352.223 C 364.103 352.824 367.303 354.623 367.703 356.024 C 368.303 357.423 369.303 371.824 370.103 387.814 C 371.503 416.004 371.903 417.203 375.903 417.203 C 384.703 417.203 386.103 420.004 386.303 438.594 C 386.503 448.193 387.103 459.393 387.303 463.183 L 388.103 470.183 L 378.103 470.584 C 371.503 470.984 365.903 469.784 361.503 467.584 L 361.513 467.604 Z " fill="rgb(0,0,0)"/><path d=" M 693.043 465.403 C 686.643 464.403 686.043 463.604 686.843 458.203 C 687.243 455.004 687.443 444.203 687.443 434.413 C 687.443 415.014 689.043 411.423 698.643 411.223 C 702.243 411.223 703.043 410.024 703.243 404.824 C 703.443 401.223 704.043 387.423 704.843 374.234 L 706.043 350.244 L 712.643 347.044 C 716.443 345.443 719.243 343.244 719.043 342.643 C 718.443 339.443 721.443 337.443 757.033 319.854 C 810.023 293.264 819.823 290.463 825.813 299.653 C 829.213 305.254 822.613 312.054 809.813 316.054 C 803.213 318.054 785.623 325.854 770.623 333.453 C 755.423 341.054 740.633 347.254 737.633 347.453 C 732.033 347.653 732.033 347.653 738.633 349.854 C 751.633 354.653 751.833 359.854 740.833 391.844 C 736.233 404.844 731.033 423.834 729.033 433.633 C 725.233 452.034 722.033 457.623 713.033 462.223 C 705.433 466.024 700.833 466.824 693.033 465.423 L 693.043 465.403 Z " fill="rgb(0,0,0)"/><path d=" M 239.543 300.844 C 236.543 296.844 230.743 285.044 229.143 279.054 C 227.343 272.854 230.543 268.453 236.343 269.653 C 240.343 270.254 251.543 296.044 249.743 300.443 C 248.543 303.844 242.343 304.044 239.543 300.844 Z " fill="rgb(0,0,0)"/><path d=" M 826.013 295.244 C 824.613 293.044 833.813 266.054 837.413 261.854 C 840.413 258.254 846.413 258.653 847.813 262.653 C 849.613 267.453 834.813 297.044 830.613 297.244 C 828.813 297.244 826.613 296.443 826.013 295.244 L 826.013 295.244 Z " fill="rgb(0,0,0)"/><path d=" M 409.903 374.024 C 399.503 358.223 391.503 317.234 394.703 294.643 C 395.903 285.244 395.703 280.643 394.303 279.643 C 390.103 276.643 358.113 261.443 340.113 254.054 C 319.713 245.854 315.723 242.854 311.923 233.854 C 307.723 224.054 308.323 215.854 313.323 214.254 C 315.723 213.453 319.123 211.254 321.323 209.054 C 324.523 205.853 325.923 205.654 330.123 207.654 C 332.923 208.853 335.123 210.453 335.123 211.254 C 335.123 212.054 337.323 212.254 340.123 211.653 C 343.123 211.254 345.123 211.653 345.123 213.054 C 345.123 214.254 346.723 215.254 348.723 215.254 C 353.323 215.254 359.123 221.254 359.123 225.854 C 359.123 227.653 356.323 232.254 353.123 236.054 L 347.123 242.854 L 356.723 249.054 C 362.123 252.453 373.123 257.453 381.313 260.254 C 389.513 263.054 398.513 267.054 401.513 269.254 C 404.513 271.453 408.713 273.254 410.913 273.254 C 414.713 273.254 414.313 271.854 406.913 253.854 C 393.113 221.064 388.713 200.664 387.713 165.073 C 386.713 136.284 386.913 132.884 391.113 121.083 C 393.513 114.083 396.913 105.683 398.713 102.284 C 407.913 84.083 436.503 59.294 454.503 54.093 C 473.103 48.693 475.893 53.494 463.103 68.294 C 458.703 73.294 455.103 78.494 455.103 79.494 C 455.103 80.494 457.703 81.894 461.103 82.494 C 474.903 85.294 473.503 92.494 457.103 101.093 C 442.303 108.894 440.703 111.294 450.103 111.294 C 454.103 111.294 457.703 112.494 458.303 113.894 C 458.903 115.494 456.503 122.294 453.103 129.494 C 438.703 160.083 449.703 201.274 478.293 224.473 C 492.693 236.074 499.093 241.673 510.683 252.864 C 515.683 257.463 520.483 261.264 521.283 261.264 C 522.283 261.264 523.483 263.264 524.083 265.864 C 525.083 269.864 526.483 270.264 537.283 270.463 C 546.683 270.463 549.083 269.864 549.083 267.463 C 549.083 263.463 570.473 242.873 595.473 222.873 C 624.063 200.083 634.663 158.884 619.863 127.693 C 613.463 114.294 614.063 110.494 622.863 109.294 C 630.863 108.093 629.863 107.093 613.463 98.294 C 601.063 91.693 600.063 86.093 610.263 82.494 C 617.863 79.693 617.663 75.894 609.263 66.093 C 602.863 58.894 601.263 51.894 605.663 50.294 C 609.263 48.894 628.253 56.294 637.853 62.693 C 650.653 71.294 669.843 91.683 674.843 101.683 C 688.243 129.473 690.443 159.274 682.043 200.063 C 677.443 223.254 675.443 229.854 664.243 259.854 C 658.443 274.854 659.643 276.254 671.043 268.453 C 674.843 266.054 685.643 261.453 695.033 258.453 C 710.433 253.453 725.023 246.054 725.023 243.054 C 725.023 242.453 722.823 239.854 720.023 237.254 C 710.423 228.254 715.623 213.864 725.423 222.453 C 729.623 226.254 729.623 226.254 728.623 220.854 C 727.223 213.054 729.823 209.654 734.823 212.653 C 738.223 214.854 739.223 214.653 741.023 211.254 C 743.623 206.453 749.423 206.054 753.023 210.254 C 755.823 213.653 754.823 224.854 750.423 236.244 C 747.423 244.244 739.423 250.244 721.033 258.633 C 717.233 260.234 709.633 264.633 704.033 268.234 C 698.633 271.834 689.833 276.834 684.633 279.433 L 675.233 283.834 L 676.633 292.034 C 680.233 313.423 676.033 347.223 667.233 368.014 C 663.033 377.413 662.833 377.614 655.433 376.614 C 631.643 373.014 598.643 371.213 575.053 372.213 C 560.253 372.814 521.463 373.814 489.073 374.213 C 456.683 374.814 426.283 376.014 421.493 377.014 C 413.693 378.614 412.493 378.213 409.893 374.014 L 409.903 374.024 Z  M 656.843 355.223 C 662.043 352.423 666.843 339.423 668.243 323.633 C 669.843 306.433 667.243 299.244 659.643 299.244 C 656.443 299.244 652.843 300.044 651.443 300.844 C 647.643 303.244 641.643 320.643 640.043 333.633 C 638.643 344.633 638.843 345.433 644.643 351.234 C 651.443 357.834 651.843 358.034 656.843 355.234 L 656.843 355.223 Z  M 426.893 348.024 C 434.093 342.024 434.493 338.824 429.893 318.834 C 426.293 303.034 420.493 295.244 412.093 295.244 C 405.093 295.244 402.493 302.844 403.893 319.433 C 405.693 339.633 411.493 353.223 418.293 353.223 C 419.693 353.223 423.493 350.824 426.893 348.024 Z " fill="rgb(0,0,0)"/><path d=" M 507.683 827.123 C 477.693 823.123 460.893 816.324 443.103 801.334 C 429.703 789.933 423.903 783.933 419.713 776.143 C 417.913 772.943 412.113 764.744 406.713 758.143 C 375.723 719.554 368.323 681.163 375.523 593.183 C 377.523 569.594 381.323 536.794 384.123 520.203 C 387.123 501.804 388.523 487.014 387.923 482.014 L 386.723 473.614 L 396.923 471.413 C 413.523 467.814 470.903 468.814 493.103 473.014 C 518.493 477.814 530.293 483.213 534.093 491.614 C 535.693 495.213 536.893 496.614 537.093 494.814 C 537.093 490.213 545.093 481.814 551.693 479.413 C 554.493 478.213 566.493 475.614 578.083 473.213 C 601.873 468.614 653.263 467.614 670.663 471.413 L 680.463 473.413 L 685.663 500.804 C 688.663 515.804 691.863 536.794 693.063 547.193 C 694.063 557.594 696.063 576.984 697.463 590.183 C 698.863 603.383 700.063 630.373 700.063 650.173 C 700.063 682.364 699.663 687.764 695.463 701.163 C 689.263 720.764 677.463 743.754 666.673 757.153 C 661.873 763.153 655.673 771.754 652.673 776.153 C 641.873 792.953 619.283 811.344 602.283 817.344 C 577.093 826.143 533.903 830.544 507.703 827.143 L 507.683 827.123 Z  M 537.873 713.153 C 538.473 676.364 539.073 616.574 539.273 580.383 C 539.273 517.994 538.273 507.203 533.673 512.004 C 531.073 514.604 529.073 781.744 531.673 784.744 C 533.473 786.943 534.073 786.744 535.273 783.744 C 535.873 781.744 537.073 749.953 537.873 713.163 L 537.873 713.153 Z " fill="rgb(0,0,0)"/></g></g></g></svg>