<?xml version="1.0" encoding="UTF-8" standalone="no"?><!-- Generator: Gravit.io --><svg xmlns="http://www.w3.org/2000/svg" xmlns:xlink="http://www.w3.org/1999/xlink" style="isolation:isolate" viewBox="0 0 1062.8 930.6" width="1062.8pt" height="930.6pt"><defs><clipPath id="_clipPath_PN7jeymTsq3KbYL71cw5HimJYcU49Vu0"><rect width="1062.8" height="930.6"/></clipPath></defs><g clip-path="url(#_clipPath_PN7jeymTsq3KbYL71cw5HimJYcU49Vu0)"><g><path d=" M 780.066 930.604 L 531.424 930.604 L 282.782 930.604 C 271.743 930.604 258.301 922.843 252.782 913.284 L 128.46 697.953 L 4.139 482.623 C -1.38 473.063 -1.38 457.541 4.139 447.981 L 128.46 232.651 L 252.782 17.321 C 258.301 7.761 271.743 0 282.782 0 L 531.424 0 L 780.066 0 C 791.104 0 804.547 7.761 810.066 17.321 L 934.387 232.651 L 1058.708 447.981 C 1064.227 457.541 1064.227 473.063 1058.708 482.623 L 934.387 697.953 L 810.066 913.284 C 804.547 922.843 791.104 930.604 780.066 930.604 Z " fill="rgb(59,57,55)"/><g><g/><path d=" M 480.238 326.89 C 474.911 324.325 468.005 319.59 464.849 316.63 C 457.549 309.528 451.235 292.768 451.235 280.141 C 451.235 263.568 463.073 232.208 475.098 216.829 L 480.82 209.726 L 450.841 202.624 C 434.268 198.875 414.943 194.535 407.84 193.154 C 397.581 190.983 395.016 189.799 395.016 186.84 C 395.016 184.867 396.792 182.5 398.962 181.71 C 403.302 180.132 442.16 189.405 467.798 198.086 C 476.479 201.045 483.976 203.018 484.371 202.426 C 484.963 202.032 485.949 190.983 486.541 177.972 C 487.725 155.293 487.922 154.109 493.446 148.387 C 500.746 140.89 511.992 136.55 514.547 140.496 C 516.915 144.244 516.717 146.02 513.363 157.266 C 511.785 162.593 510.404 168.906 510.404 171.471 C 510.404 175.417 511.193 175.811 514.942 174.628 C 517.309 174.036 521.65 172.063 524.609 170.682 C 531.514 167.13 541.576 167.13 548.669 170.879 C 551.629 172.457 555.574 173.838 556.956 173.838 C 560.704 173.838 560.507 160.62 556.758 151.554 C 555.18 147.608 553.799 143.07 553.799 141.295 C 553.799 135.968 561.493 138.138 569.188 145.832 C 580.631 156.684 582.012 160.63 580.434 175.022 C 579.053 188.833 580.631 203.62 584.182 208.552 C 586.352 211.512 587.931 211.512 603.122 207.566 C 624.036 202.042 655.988 195.531 661.906 195.531 C 664.274 195.531 666.247 196.32 666.247 197.307 C 666.247 199.28 655.988 202.634 625.811 210.525 C 616.144 213.09 604.316 216.247 599.778 217.431 L 591.492 219.601 L 596.03 225.914 C 605.5 238.344 611.221 252.737 613.194 269.112 C 616.548 295.737 613.194 311.126 601.159 322.766 L 593.268 330.461 L 541.586 330.855 C 490.497 331.447 489.51 331.447 480.238 326.909 L 480.238 326.89 Z  M 484.578 282.508 C 489.905 277.181 491.878 255.883 487.735 249.57 C 481.224 239.508 469.978 247.992 467.808 264.959 C 465.638 280.151 468.203 285.083 478.462 286.06 C 479.646 286.06 482.408 284.678 484.578 282.508 Z  M 597.993 281.916 C 601.939 276.195 601.939 266.725 597.993 256.87 C 592.863 244.046 582.801 243.651 580.631 256.278 C 578.855 267.327 579.25 278.168 581.42 282.508 C 584.379 287.835 594.047 287.441 597.993 281.916 L 597.993 281.916 Z " fill="rgb(38,139,183)"/><path d=" M 375.504 93.145 C 373.531 90.975 372.544 88.213 373.333 87.226 C 375.306 83.872 377.871 84.661 380.436 89.199 C 383.593 95.118 379.844 98.077 375.504 93.145 Z " fill="rgb(38,139,183)"/><path d=" M 682.81 104.588 C 680.837 101.234 687.348 95.512 690.11 98.274 C 691.491 99.656 691.885 102.023 691.293 103.601 C 689.912 107.153 684.783 107.745 682.81 104.588 L 682.81 104.588 Z " fill="rgb(38,139,183)"/><path d=" M 381.62 108.731 C 378.068 103.601 379.252 98.472 383.987 99.261 C 387.539 100.05 389.512 108.139 386.552 111.099 C 385.368 112.282 383.593 111.493 381.62 108.731 Z " fill="rgb(38,139,183)"/><path d=" M 384.185 120.559 C 384.185 116.613 385.171 114.64 387.144 114.64 C 389.117 114.64 390.103 116.613 390.103 120.559 C 390.103 124.505 389.117 126.478 387.144 126.478 C 385.171 126.478 384.185 124.505 384.185 120.559 Z " fill="rgb(38,139,183)"/><path d=" M 674.928 129.437 C 674.336 127.859 674.533 125.491 675.322 124.11 C 676.112 122.927 676.901 119.77 677.098 117.205 C 677.295 111.878 680.847 107.735 683.806 109.51 C 686.963 111.483 686.568 117.6 683.017 120.559 C 681.044 122.335 680.649 123.913 682.03 126.478 C 683.017 128.253 683.214 130.424 682.622 131.213 C 680.452 133.383 676.112 132.397 674.928 129.437 Z " fill="rgb(38,139,183)"/><path d=" M 384.569 135.356 C 384.964 132.594 386.148 130.226 387.134 130.226 C 388.318 130.226 389.304 132.594 389.699 135.356 C 390.094 138.907 389.502 140.288 387.134 140.288 C 384.767 140.288 384.175 138.907 384.569 135.356 Z " fill="rgb(38,139,183)"/><path d=" M 677.295 148.772 C 674.731 146.207 676.112 136.343 679.071 136.343 C 681.044 136.343 682.03 138.316 682.03 142.064 C 682.03 147.983 679.663 151.14 677.295 148.772 Z " fill="rgb(38,139,183)"/><path d=" M 384.767 148.969 C 383.188 144.826 387.331 140.683 390.291 143.643 C 392.856 146.207 391.277 152.126 388.121 152.126 C 386.937 152.126 385.556 150.745 384.767 148.969 L 384.767 148.969 Z " fill="rgb(38,139,183)"/><path d=" M 387.529 164.546 C 386.74 163.954 386.148 161.192 386.148 158.627 C 386.148 155.47 387.331 154.089 389.896 154.089 C 393.448 154.089 396.802 160.995 394.829 164.349 C 393.645 166.322 389.304 166.519 387.529 164.546 L 387.529 164.546 Z " fill="rgb(38,139,183)"/><path d=" M 671.574 175.002 C 670.982 173.621 671.771 169.873 673.349 166.913 C 674.928 163.954 676.112 159.416 676.112 156.851 C 676.112 153.892 677.295 152.116 679.268 152.116 C 681.636 152.116 682.228 153.3 681.044 156.654 C 679.86 160.6 679.268 163.559 678.479 174.411 C 678.085 178.356 672.955 178.948 671.574 175.002 L 671.574 175.002 Z " fill="rgb(38,139,183)"/><path d=" M 390.291 177.37 C 388.318 172.043 390.488 168.886 395.026 170.662 C 396.999 171.254 397.985 173.621 397.591 176.186 C 396.802 182.105 392.461 182.894 390.291 177.37 Z " fill="rgb(38,139,183)"/><path d=" M 666.247 191.772 C 666.247 187.037 670.39 179.738 673.152 179.738 C 676.703 179.738 676.901 181.908 673.744 188.616 C 671.574 193.351 666.247 195.521 666.247 191.772 L 666.247 191.772 Z " fill="rgb(38,139,183)"/><path d=" M 658.355 285.27 C 654.409 280.535 667.825 267.908 683.796 261.21 C 695.042 256.475 699.58 255.883 716.932 255.686 C 728.178 255.686 737.253 255.094 737.253 254.305 C 737.253 253.516 741.594 250.556 746.723 247.992 L 756.194 243.256 L 758.561 227.67 C 759.942 219.187 761.323 206.57 761.915 199.467 C 763.888 177.183 767.439 159.623 770.399 158.637 C 771.78 158.045 774.542 159.031 776.317 160.807 C 779.277 163.766 779.277 165.148 776.317 181.128 C 774.542 190.796 770.991 209.529 768.623 223.142 C 764.677 244.638 763.493 248.386 758.758 252.727 C 743.961 265.945 742.186 266.932 730.358 267.721 C 712.601 268.905 692.487 274.232 677.69 281.532 C 662.498 289.226 661.709 289.423 658.355 285.28 L 658.355 285.27 Z " fill="rgb(38,139,183)"/><path d=" M 379.45 285.27 C 366.625 277.971 347.3 272.446 335.068 272.446 C 330.728 272.446 326.584 271.46 325.993 270.276 C 325.203 269.29 322.244 268.698 319.482 269.29 C 315.141 270.276 312.182 268.698 302.909 260.017 C 292.847 250.941 291.466 248.771 290.48 240.09 C 289.888 234.763 288.901 229.633 288.507 228.844 C 287.915 228.252 286.139 218.387 284.363 207.152 C 277.261 162.573 277.261 161.981 284.758 161.981 C 290.48 161.981 290.677 162.376 294.425 200.444 C 299.161 246.206 298.766 245.022 309.814 250.744 C 314.944 253.506 319.087 256.86 319.087 258.044 C 319.087 260.017 320.271 260.017 323.822 258.438 C 330.136 255.479 358.142 259.03 372.544 264.554 C 379.647 267.317 386.947 272.052 392.274 277.773 C 400.56 286.257 400.757 286.651 397.206 289.414 C 392.274 292.965 393.26 293.162 379.45 285.27 L 379.45 285.27 Z " fill="rgb(38,139,183)"/><path d=" M 590.9 422.943 C 588.927 422.548 587.349 420.97 587.152 419.786 C 587.152 418.405 586.757 416.037 586.362 414.262 C 585.573 409.527 587.743 406.962 593.268 406.173 C 601.751 404.989 601.159 405.975 619.893 372.05 C 625.417 362.383 637.846 323.526 639.622 310.504 C 642.384 291.169 648.303 284.866 658.562 290.183 C 661.324 291.761 662.311 294.326 662.311 300.837 C 662.311 317.607 648.895 362.975 636.87 386.64 C 631.543 397.097 615.375 414.449 611.034 414.449 C 608.864 414.449 606.496 415.633 605.707 417.211 C 604.326 419.579 596.434 424.708 594.856 424.116 C 594.461 423.919 592.686 423.524 590.91 422.933 L 590.9 422.943 Z " fill="rgb(38,139,183)"/><path d=" M 454.599 425.113 C 451.64 423.534 449.272 421.364 449.272 420.378 C 449.272 419.194 447.694 418.405 445.524 418.405 C 440.394 418.405 424.808 401.043 418.109 387.637 C 405.68 362.393 394.049 322.944 394.049 305.187 C 394.049 297.295 394.641 295.914 399.968 293.152 C 405.295 290.39 406.084 290.39 409.636 293.942 C 411.806 296.112 414.173 303.017 415.554 310.712 C 419.5 333.785 431.338 367.325 441.785 385.861 C 452.833 405.393 456.779 410.908 459.344 409.329 C 460.33 408.737 462.895 409.329 465.066 410.513 C 468.222 412.091 469.011 414.262 468.617 418.799 C 467.828 426.494 462.106 428.861 454.609 425.113 L 454.599 425.113 Z " fill="rgb(38,139,183)"/><path d=" M 650.463 463.97 C 647.701 462.983 641.388 460.419 636.258 458.051 C 631.128 455.881 626.393 453.908 625.604 453.908 C 624.815 453.908 622.645 452.724 621.066 451.146 C 619.291 449.568 615.74 447.792 612.977 447.003 C 608.44 446.016 607.848 446.411 608.045 451.343 C 608.045 456.473 607.453 456.867 598.18 458.051 C 592.853 458.643 587.329 458.446 586.145 457.459 C 584.764 456.473 583.186 451.738 582.397 446.805 C 580.621 434.77 583.383 431.614 594.234 433.389 C 598.969 433.981 603.113 433.784 603.704 432.797 C 604.494 431.614 610.61 431.811 619.291 433.192 C 627.183 434.376 639.415 435.165 646.508 435.165 C 668.989 434.77 708.448 430.233 714.16 427.273 C 724.025 422.341 732.311 428.062 734.284 441.084 C 735.27 448.384 734.876 449.37 727.379 455.486 C 721.854 460.221 716.33 462.589 708.241 463.773 C 694.825 466.14 657.546 466.14 650.444 463.97 L 650.463 463.97 Z " fill="rgb(38,139,183)"/><path d=" M 362.482 468.311 C 343.739 466.929 334.082 463.773 326.387 456.867 C 321.455 452.33 319.087 448.778 319.679 446.411 C 320.271 444.635 321.258 440.689 321.849 437.927 C 323.23 431.219 333.095 426.681 339.409 429.838 C 350.654 435.165 401.349 438.519 442.377 436.349 C 447.901 436.151 456.779 436.151 462.106 436.546 L 471.971 437.138 L 471.774 447.595 C 471.379 458.249 468.222 464.759 464.276 462.392 C 463.093 461.602 458.555 460.419 454.214 459.827 C 447.112 458.84 446.323 458.249 446.717 453.513 C 446.914 449.173 446.323 448.581 442.771 449.568 C 440.404 450.159 436.261 452.132 433.696 454.303 C 431.131 456.276 428.171 457.854 426.988 457.854 C 426.001 457.854 420.082 460.221 414.164 462.983 C 403.312 468.113 385.96 469.889 362.482 468.311 L 362.482 468.311 Z " fill="rgb(38,139,183)"/><path d=" M 807.273 484.291 C 804.116 482.516 797.803 479.753 793.265 477.978 C 785.176 474.624 763.286 461.602 749.081 451.55 C 743.36 447.604 740.992 444.25 740.005 439.121 C 738.427 430.44 739.216 429.453 746.714 431.229 C 752.238 432.413 801.157 458.643 819.693 470.283 C 828.768 476.202 830.544 481.924 824.231 485.475 C 818.904 488.237 814.168 488.04 807.263 484.291 L 807.273 484.291 Z " fill="rgb(38,139,183)"/><path d=" M 511.006 508.154 C 494.63 504.603 491.473 502.63 486.354 492.765 C 482.802 485.86 481.816 479.744 480.632 455.881 C 479.646 437.138 477.87 422.153 475.108 412.683 C 471.557 399.465 471.359 396.702 473.727 386.058 C 478.265 364.76 489.313 348.385 504.692 340.69 C 513.373 336.35 517.714 335.561 531.514 335.561 C 551.047 335.561 555.969 337.731 567.215 350.358 C 581.815 366.931 586.944 402.237 578.066 423.732 C 575.107 430.637 573.726 439.713 572.739 457.459 C 571.161 487.044 567.215 500.657 558.731 505.392 C 550.445 510.127 525.99 511.508 510.996 508.154 L 511.006 508.154 Z " fill="rgb(38,139,183)"/><path d=" M 854.417 523.938 C 849.681 519.005 843.763 512.1 841.395 508.351 C 838.83 504.603 834.293 498.487 831.136 494.541 C 826.006 488.227 825.809 486.846 828.176 484.281 C 830.741 481.914 833.306 484.084 848.103 501.841 L 865.071 522.359 L 879.078 522.162 C 889.732 521.965 893.678 522.754 895.059 524.924 C 898.611 530.448 895.651 531.829 879.276 532.421 L 862.9 533.013 L 854.417 523.938 L 854.417 523.938 Z " fill="rgb(38,139,183)"/><path d=" M 160.699 535.381 C 158.134 533.013 159.318 527.292 162.475 526.108 C 164.25 525.516 171.156 524.924 178.061 524.924 L 190.491 524.924 L 203.907 508.746 C 211.404 499.671 219.296 490.398 221.466 488.227 C 223.636 485.86 226.398 482.309 227.582 480.336 C 230.147 475.798 288.142 441.873 303.126 436.151 C 309.045 433.981 314.569 432.797 315.358 433.587 C 316.345 434.573 316.148 438.716 314.964 442.662 C 313.385 448.778 310.821 451.54 301.745 457.262 C 295.629 461.208 285.37 467.719 279.263 471.862 C 272.95 475.808 264.466 480.345 260.52 481.726 C 256.377 482.91 251.05 485.475 248.683 487.054 C 245.921 488.632 240.988 489.618 236.253 489.026 C 231.123 488.632 228.361 489.224 228.361 490.605 C 228.361 491.789 226.98 493.959 225.402 495.34 C 223.824 496.524 219.483 502.245 215.734 507.769 C 211.986 513.491 205.475 521.777 201.332 526.512 C 193.835 534.799 193.835 534.996 177.864 535.785 C 169.183 536.377 161.291 536.18 160.699 535.391 L 160.699 535.381 Z " fill="rgb(38,139,183)"/><path d=" M 747.513 855.906 C 746.526 854.525 743.172 848.409 740.213 842.49 C 737.253 836.571 730.742 825.522 725.81 817.838 C 720.878 810.34 716.932 802.054 717.129 799.686 C 717.721 792.978 728.967 736.562 732.518 722.761 L 735.675 710.726 L 723.837 687.258 C 711.21 662.212 703.121 637.747 699.58 612.7 C 696.818 595.141 697.212 595.339 673.152 580.354 C 665.655 575.422 651.46 565.557 641.595 558.267 C 631.927 550.967 618.916 542.089 612.997 538.537 C 607.078 534.986 598.595 528.476 594.254 524.332 C 589.914 519.992 583.008 514.27 579.062 511.508 C 570.776 505.984 570.184 503.222 574.327 489.026 C 578.668 474.821 581.035 471.27 585.968 472.059 C 589.322 472.454 591.887 476.4 597.411 489.224 C 601.159 498.299 605.895 506.783 607.67 508.164 C 609.446 509.545 611.024 511.715 611.024 513.096 C 611.024 515.858 618.521 522.961 621.283 522.961 C 622.27 522.961 625.032 525.131 627.4 527.696 C 631.543 532.037 670.795 559.648 697.419 576.615 C 705.706 581.942 709.652 585.888 709.652 588.453 C 709.652 595.161 728.789 657.092 740.025 687.278 C 744.958 700.102 744.958 700.891 742.195 711.93 C 739.039 723.768 733.12 754.141 728.188 784.515 L 725.228 802.468 L 735.882 818.055 C 753.836 844.285 757.772 851.979 755.02 855.333 C 752.06 858.885 750.285 859.082 747.522 855.925 L 747.513 855.906 Z " fill="rgb(38,139,183)"/><path d=" M 299.368 856.498 C 299.368 852.157 308.641 835.782 321.652 817.246 L 330.333 804.816 L 327.571 789.625 C 319.285 742.875 312.774 710.924 310.998 707.767 C 309.617 705.202 311.195 698.889 317.904 682.129 C 322.639 670.094 327.966 654.714 329.741 648.204 C 331.517 641.693 336.252 625.13 340.395 611.319 L 347.892 586.273 L 375.306 567.727 C 415.15 540.905 427.58 532.224 427.58 530.843 C 427.58 530.054 431.525 526.897 436.261 523.938 C 441.193 520.781 444.547 517.427 443.955 515.849 C 443.56 514.468 444.744 512.495 446.914 511.311 C 449.085 510.127 451.847 506.378 453.228 502.827 C 462.303 480.543 465.263 475.61 469.801 475.61 C 473.549 475.61 475.325 477.386 477.89 483.897 C 479.665 488.434 481.638 496.129 482.23 501.061 C 483.217 509.545 482.822 510.334 477.495 513.491 C 474.338 515.266 467.236 521.185 461.909 526.512 C 456.385 532.037 448.296 538.153 443.758 540.52 C 439.417 542.69 429.75 549.201 422.262 554.725 C 414.963 560.447 400.373 570.706 390.113 577.404 C 379.854 584.31 369.013 591.61 366.053 593.977 C 363.094 596.147 359.937 597.923 359.148 597.529 C 358.359 597.134 356.583 605.223 355.202 615.285 C 351.256 645.659 340.8 675.45 324.631 703.061 C 319.107 712.532 319.107 712.729 321.869 723.777 C 323.645 729.894 327.985 751.192 331.931 771.118 L 339.231 807.016 L 332.326 816.486 C 328.577 821.616 321.277 833.453 316.148 843.111 C 309.44 855.343 305.888 860.276 303.126 860.276 C 300.759 860.276 299.378 858.895 299.378 856.527 L 299.368 856.498 Z " fill="rgb(38,139,183)"/><path d=" M 497.599 753.529 C 480.435 744.454 474.92 738.535 462.491 713.686 C 447.299 683.904 442.367 661.413 444.142 630.053 C 446.115 593.957 456.967 563.189 481.421 523.938 C 491.483 507.957 490.891 508.351 507.454 511.113 C 521.857 513.481 551.441 512.889 561.306 509.93 C 564.857 508.943 567.225 510.324 573.735 517.23 C 592.676 537.551 608.055 592.182 609.436 643.271 C 610.225 674.434 600.163 713.094 586.362 732.034 C 580.838 739.531 563.683 757.278 561.316 757.87 C 560.921 757.87 549.083 758.264 535.085 758.856 L 509.447 759.843 L 497.609 753.529 L 497.599 753.529 Z  M 527.184 719.407 C 539.613 714.08 535.667 711.713 517.911 713.489 C 497.392 715.659 485.367 715.659 478.067 713.489 C 473.727 712.107 472.543 712.305 473.332 714.475 C 475.502 721.183 514.36 724.734 527.184 719.407 L 527.184 719.407 Z  M 513.176 657.072 C 525.014 655.099 532.116 650.956 532.116 645.629 C 532.116 642.67 528.959 642.867 507.464 647.207 C 499.967 648.786 488.129 649.18 475.118 648.588 C 452.044 647.207 451.255 648.983 471.961 654.902 C 487.745 659.242 496.613 659.834 513.186 657.072 L 513.176 657.072 Z  M 537.631 586.066 C 547.298 581.725 549.468 574.82 540.59 576.99 C 526.779 580.344 495.419 580.542 482.201 577.385 C 466.417 573.636 467.009 573.636 467.009 576.004 C 467.009 577.977 484.765 585.079 496.396 588.039 C 509.417 590.998 528.545 590.209 537.621 586.066 L 537.631 586.066 Z " fill="rgb(38,139,183)"/></g></g></g></svg>